<?xml version="1.0" standalone="yes"?>
<svg width="499" height="499">
<path style="fill:#ffffff; stroke:none;" d="M0 0L0 499L499 499L499 0L0 0z"/>
<path style="fill:#f9caad; stroke:none;" d="M292 12L293 13L292 12z"/>
<path style="fill:#ef6b1b; stroke:none;" d="M293 12L285 13C287.977 16.123 290.744 16.8736 295 17L293 12z"/>
<path style="fill:#f9caad; stroke:none;" d="M294.333 12.6667L294.667 13.3333L294.333 12.6667z"/>
<path style="fill:#ef6b1b; stroke:none;" d="M251 15C254.602 16.4972 258.22 15.4777 262 15C258.243 12.4377 255.006 13.3051 251 15z"/>
<path style="fill:#f59c65; stroke:none;" d="M287 13L291 14L287 13z"/>
<path style="fill:#f7bb95; stroke:none;" d="M252 14L253 15L252 14z"/>
<path style="fill:#f59c65; stroke:none;" d="M262 14L263 15L262 14z"/>
<path style="fill:#f7bb95; stroke:none;" d="M250 15L251 16L250 15z"/>
<path style="fill:#f59c65; stroke:none;" d="M258 15L261 16L258 15z"/>
<path style="fill:#fad8c3; stroke:none;" d="M261.667 15.3333L262.333 15.6667L261.667 15.3333z"/>
<path style="fill:#f6aa7b; stroke:none;" d="M287 15L288 16L287 15z"/>
<path style="fill:#fbe7da; stroke:none;" d="M250 16L256 17L250 16z"/>
<path style="fill:#f6aa7b; stroke:none;" d="M288 16L289 17L288 16z"/>
<path style="fill:#fbe7da; stroke:none;" d="M289 17L294 18L289 17z"/>
<path style="fill:#ef6b1b; stroke:none;" d="M22 258C25.7578 249.045 21.4205 237.504 23.9244 228C26.6647 217.598 34.8626 211.888 40 203L35 205L41 181L48 183L57.2238 167L58.0725 159.17C60.2162 154.329 67.4251 150.177 72 148C72.838 140.243 86.9847 125.509 95 127C98.151 119.867 101.637 122.316 107 118.629L121 108L119 117C135.259 106.83 128.309 89.3692 146 81L146 83C174.625 69.7523 202.626 58.1447 236 59.1296L268 66L268 62C283.603 68.4962 299.616 75.5266 313 86.0146C318.844 90.5937 324.978 102.793 332 104L329 99C336.244 101.467 342.782 104.864 347.61 111.001C351.455 115.889 352.094 122.088 358 125L354 117C363.359 123.593 375.289 131.356 382.814 140C416.704 178.93 430.465 235.924 419.112 286C413.146 312.315 397.958 333.851 390 359L392 359C388.808 366.666 383.419 377.282 376.675 382.397L368.894 385.603L365.258 396.907L351 408.611C346.077 412.606 337.853 422.815 331 420C323.402 429.33 315.954 432.399 306 438.204C264.583 462.362 221.17 458.083 176 452L177 455C146.327 446.296 117.726 430.85 93 410.739L51 373C62.9384 405.608 93.9319 431.103 124 445.263C142.211 453.839 157.026 466.387 177 471.252C192.007 474.907 206.828 473.704 222 473.039L263 471.446C286.501 467.665 313.574 455.914 334 443.988C349.27 435.073 364.847 424.183 377.698 411.985L388 399L391 405L419 366L420 373L436 356C429.285 352.144 433.077 345.866 438 342C437.276 336.24 437.54 331.644 439 326L441 326L442 334C446.311 328.236 448.936 319.141 449 312L445 312C446.737 300.462 452.077 303.785 461 304L460 319C464.272 316.664 466.515 313.105 469 309L472 311C475.718 282.213 478.049 254.614 471 226L467 228L467.15 210.001C465.435 203.845 458.05 202.833 454.938 197.895L451.87 185L445 156L440 158C437.779 147.224 428.746 141.879 425 132L430 135C427.97 128.901 425.915 123.153 422 118L430 121C426.816 114.854 419.712 110.376 420 103C400.261 91.6448 385.551 69.4965 363 63L365 59C346.537 52.7153 330.837 41.2379 311 39.0146C302.023 38.0086 289.533 40.4864 285 31C268.217 29.6755 247.7 22.8757 231 25.8341L211 32.5C180.642 39.457 150.432 44.7357 123 60.4275C57.7156 97.7714 1.89256 180.281 22 258z"/>
<path style="fill:#f59c65; stroke:none;" d="M232 25L235 26L232 25z"/>
<path style="fill:#fbe7da; stroke:none;" d="M235 25L239 26L235 25z"/>
<path style="fill:#f6aa7b; stroke:none;" d="M243 26L246 27L243 26z"/>
<path style="fill:#fbe7da; stroke:none;" d="M246 26L250 27L246 26z"/>
<path style="fill:#f6aa7b; stroke:none;" d="M227 27L228 28L227 27z"/>
<path style="fill:#f7bb95; stroke:none;" d="M254 27L258 28L254 27z"/>
<path style="fill:#fbe7da; stroke:none;" d="M258 27L262 28L258 27z"/>
<path style="fill:#f9caad; stroke:none;" d="M224 28L225 29L224 28z"/>
<path style="fill:#f6aa7b; stroke:none;" d="M265.667 28.3333L266.333 28.6667L265.667 28.3333z"/>
<path style="fill:#f9caad; stroke:none;" d="M267.667 28.3333L268.333 28.6667L267.667 28.3333z"/>
<path style="fill:#f59c65; stroke:none;" d="M221.667 29.3333L222.333 29.6667L221.667 29.3333M273.667 29.3333L274.333 29.6667L273.667 29.3333z"/>
<path style="fill:#f9caad; stroke:none;" d="M275.667 29.3333L276.333 29.6667L275.667 29.3333z"/>
<path style="fill:#f7bb95; stroke:none;" d="M217.667 30.3333L218.333 30.6667L217.667 30.3333z"/>
<path style="fill:#f59c65; stroke:none;" d="M280 30L283 31L280 30z"/>
<path style="fill:#fad8c3; stroke:none;" d="M283.667 30.3333L284.333 30.6667L283.667 30.3333z"/>
<path style="fill:#f6aa7b; stroke:none;" d="M213.667 31.3333L214.333 31.6667L213.667 31.3333z"/>
<path style="fill:#f7bb95; stroke:none;" d="M285 31L285 34L285 31z"/>
<path style="fill:#f9caad; stroke:none;" d="M208.667 32.3333L209.333 32.6667L208.667 32.3333z"/>
<path style="fill:#f38b4b; stroke:none;" d="M210.667 32.3333L211.333 32.6667L210.667 32.3333z"/>
<path style="fill:#f6aa7b; stroke:none;" d="M204.667 33.3333L205.333 33.6667L204.667 33.3333z"/>
<path style="fill:#f7bb95; stroke:none;" d="M199.667 34.3333L200.333 34.6667L199.667 34.3333z"/>
<path style="fill:#f6aa7b; stroke:none;" d="M195.667 35.3333L196.333 35.6667L195.667 35.3333z"/>
<path style="fill:#f59c65; stroke:none;" d="M191.667 36.3333L192.333 36.6667L191.667 36.3333z"/>
<path style="fill:#f6aa7b; stroke:none;" d="M288 36L289 37L288 36z"/>
<path style="fill:#f59c65; stroke:none;" d="M187.667 37.3333L188.333 37.6667L187.667 37.3333z"/>
<path style="fill:#fad8c3; stroke:none;" d="M290 37L299 38L290 37z"/>
<path style="fill:#f9caad; stroke:none;" d="M181 38L184 39L181 38z"/>
<path style="fill:#f38b4b; stroke:none;" d="M306 38L309 39L306 38z"/>
<path style="fill:#f6aa7b; stroke:none;" d="M309 38L312 39L309 38z"/>
<path style="fill:#f9caad; stroke:none;" d="M312 38L315 39L312 38z"/>
<path style="fill:#f6aa7b; stroke:none;" d="M177.667 39.3333L178.333 39.6667L177.667 39.3333z"/>
<path style="fill:#f7bb95; stroke:none;" d="M315 39L316 40L315 39z"/>
<path style="fill:#f59c65; stroke:none;" d="M173.667 40.3333L174.333 40.6667L173.667 40.3333z"/>
<path style="fill:#fad8c3; stroke:none;" d="M316 40L321 41L316 40z"/>
<path style="fill:#f59c65; stroke:none;" d="M169.667 41.3333L170.333 41.6667L169.667 41.3333z"/>
<path style="fill:#f7bb95; stroke:none;" d="M323.667 41.3333L324.333 41.6667L323.667 41.3333z"/>
<path style="fill:#f6aa7b; stroke:none;" d="M165.667 42.3333L166.333 42.6667L165.667 42.3333z"/>
<path style="fill:#fad8c3; stroke:none;" d="M327.667 42.3333L328.333 42.6667L327.667 42.3333z"/>
<path style="fill:#f59c65; stroke:none;" d="M162.667 43.3333L163.333 43.6667L162.667 43.3333z"/>
<path style="fill:#f6aa7b; stroke:none;" d="M330 43L331 44L330 43z"/>
<path style="fill:#f38b4b; stroke:none;" d="M159.667 44.3333L160.333 44.6667L159.667 44.3333M156.667 45.3333L157.333 45.6667L156.667 45.3333z"/>
<path style="fill:#f7bb95; stroke:none;" d="M335 45L336 46L335 45z"/>
<path style="fill:#f9caad; stroke:none;" d="M153 46L154 47L153 46z"/>
<path style="fill:#f7bb95; stroke:none;" d="M337 46L338 47L337 46z"/>
<path style="fill:#f6aa7b; stroke:none;" d="M339 47L340 48L339 47z"/>
<path style="fill:#f7bb95; stroke:none;" d="M148 48L149 49L148 48z"/>
<path style="fill:#f6aa7b; stroke:none;" d="M341 48L342 49L341 48z"/>
<path style="fill:#f9caad; stroke:none;" d="M145 49L146 50L145 49z"/>
<path style="fill:#f6aa7b; stroke:none;" d="M343 49L344 50L343 49z"/>
<path style="fill:#f7bb95; stroke:none;" d="M143 50L144 51L143 50z"/>
<path style="fill:#f6aa7b; stroke:none;" d="M345 50L346 51L345 50M347 51L348 52L347 51M349 52L350 53L349 52z"/>
<path style="fill:#f9caad; stroke:none;" d="M136 53L137 54L136 53z"/>
<path style="fill:#f6aa7b; stroke:none;" d="M351 53L352 54L351 53z"/>
<path style="fill:#f7bb95; stroke:none;" d="M134 54L135 55L134 54z"/>
<path style="fill:#f59c65; stroke:none;" d="M353 54L354 55L353 54z"/>
<path style="fill:#f7bb95; stroke:none;" d="M132 55L133 56L132 55M130 56L131 57L130 56M128 57L129 58L128 57M360 57L361 58L360 57z"/>
<path style="fill:#f9caad; stroke:none;" d="M126 58L127 59L126 58z"/>
<path style="fill:#fbe7da; stroke:none;" d="M363.667 58.3333L364.333 58.6667L363.667 58.3333z"/>
<path style="fill:#f9caad; stroke:none;" d="M231.667 59.3333L232.333 59.6667L231.667 59.3333z"/>
<path style="fill:#fbe7da; stroke:none;" d="M233 59L237 60L233 59z"/>
<path style="fill:#f7bb95; stroke:none;" d="M237 59L240 60L237 59z"/>
<path style="fill:#f9caad; stroke:none;" d="M365 59L366 60L365 59z"/>
<path style="fill:#f59c65; stroke:none;" d="M224 60L227 61L224 60z"/>
<path style="fill:#fad8c3; stroke:none;" d="M227.667 60.3333L228.333 60.6667L227.667 60.3333z"/>
<path style="fill:#f6aa7b; stroke:none;" d="M242.667 60.3333L243.333 60.6667L242.667 60.3333M121 61L122 62L121 61z"/>
<path style="fill:#f38b4b; stroke:none;" d="M214 61L217 62L214 61z"/>
<path style="fill:#f7bb95; stroke:none;" d="M217 61L220 62L217 61z"/>
<path style="fill:#f38b4b; stroke:none;" d="M246.667 61.3333L247.333 61.6667L246.667 61.3333z"/>
<path style="fill:#f7bb95; stroke:none;" d="M119 62L120 63L119 62z"/>
<path style="fill:#f59c65; stroke:none;" d="M202 62L205 63L202 62z"/>
<path style="fill:#f7bb95; stroke:none;" d="M205 62L208 63L205 62z"/>
<path style="fill:#fbe7da; stroke:none;" d="M208 62L212 63L208 62z"/>
<path style="fill:#f59c65; stroke:none;" d="M249.667 62.3333L250.333 62.6667L249.667 62.3333z"/>
<path style="fill:#f9caad; stroke:none;" d="M268 62L268 67L270 62L268 62z"/>
<path style="fill:#f7bb95; stroke:none;" d="M363 62L364 63L363 62z"/>
<path style="fill:#f38b4b; stroke:none;" d="M192.667 63.3333L193.333 63.6667L192.667 63.3333z"/>
<path style="fill:#f6aa7b; stroke:none;" d="M194.667 63.3333L195.333 63.6667L194.667 63.3333z"/>
<path style="fill:#fbe7da; stroke:none;" d="M196 63L200 64L196 63z"/>
<path style="fill:#f6aa7b; stroke:none;" d="M252.667 63.3333L253.333 63.6667L252.667 63.3333z"/>
<path style="fill:#f7bb95; stroke:none;" d="M271 63L272 64L271 63z"/>
<path style="fill:#f6aa7b; stroke:none;" d="M365 63L366 64L365 63z"/>
<path style="fill:#f59c65; stroke:none;" d="M116 64L117 65L116 64z"/>
<path style="fill:#f6aa7b; stroke:none;" d="M187.667 64.3333L188.333 64.6667L187.667 64.3333z"/>
<path style="fill:#fad8c3; stroke:none;" d="M189.667 64.3333L190.333 64.6667L189.667 64.3333z"/>
<path style="fill:#f59c65; stroke:none;" d="M256.667 64.3333L257.333 64.6667L256.667 64.3333z"/>
<path style="fill:#f7bb95; stroke:none;" d="M273 64L274 65L273 64z"/>
<path style="fill:#f6aa7b; stroke:none;" d="M367 64L368 65L367 64z"/>
<path style="fill:#f7bb95; stroke:none;" d="M114 65L115 66L114 65M183.667 65.3333L184.333 65.6667L183.667 65.3333M259.667 65.3333L260.333 65.6667L259.667 65.3333z"/>
<path style="fill:#f9caad; stroke:none;" d="M275 65L276 66L275 65z"/>
<path style="fill:#f7bb95; stroke:none;" d="M369 65L370 66L369 65z"/>
<path style="fill:#fad8c3; stroke:none;" d="M180.667 66.3333L181.333 66.6667L180.667 66.3333z"/>
<path style="fill:#f7bb95; stroke:none;" d="M264.667 66.3333L265.333 66.6667L264.667 66.3333z"/>
<path style="fill:#f38b4b; stroke:none;" d="M266.667 66.3333L267.333 66.6667L266.667 66.3333z"/>
<path style="fill:#f9caad; stroke:none;" d="M371 66L372 67L371 66z"/>
<path style="fill:#f7bb95; stroke:none;" d="M111 67L112 68L111 67z"/>
<path style="fill:#fbe7da; stroke:none;" d="M177.667 67.3333L178.333 67.6667L177.667 67.3333z"/>
<path style="fill:#f7bb95; stroke:none;" d="M280 67L281 68L280 67z"/>
<path style="fill:#f59c65; stroke:none;" d="M174 68L175 69L174 68z"/>
<path style="fill:#f9caad; stroke:none;" d="M282 68L283 69L282 68z"/>
<path style="fill:#f6aa7b; stroke:none;" d="M374 68L375 69L374 68M108 69L109 70L108 69M172 69L173 70L172 69M377 70L378 71L377 70z"/>
<path style="fill:#f7bb95; stroke:none;" d="M105 71L106 72L105 71z"/>
<path style="fill:#f9caad; stroke:none;" d="M169 71L170 72L169 71z"/>
<path style="fill:#f6aa7b; stroke:none;" d="M289 71L290 72L289 71M291 72L292 73L291 72z"/>
<path style="fill:#f7bb95; stroke:none;" d="M380 72L381 73L380 72z"/>
<path style="fill:#f9caad; stroke:none;" d="M102 73L103 74L102 73z"/>
<path style="fill:#f59c65; stroke:none;" d="M166 73L167 74L166 73z"/>
<path style="fill:#f6aa7b; stroke:none;" d="M293 73L294 74L293 73M101 74L102 75L101 74z"/>
<path style="fill:#f59c65; stroke:none;" d="M295 74L296 75L295 74z"/>
<path style="fill:#f9caad; stroke:none;" d="M383 74L384 75L383 74z"/>
<path style="fill:#f6aa7b; stroke:none;" d="M384 75L385 76L384 75z"/>
<path style="fill:#f9caad; stroke:none;" d="M98 76L99 77L98 76z"/>
<path style="fill:#f6aa7b; stroke:none;" d="M97 77L98 78L97 77z"/>
<path style="fill:#f9caad; stroke:none;" d="M300 77L301 78L300 77M387 77L388 78L387 77z"/>
<path style="fill:#f6aa7b; stroke:none;" d="M302 78L303 79L302 78M388 78L389 79L388 78z"/>
<path style="fill:#f7bb95; stroke:none;" d="M93 80L94 81L93 80M305 80L306 81L305 80z"/>
<path style="fill:#f6aa7b; stroke:none;" d="M92 81L93 82L92 81z"/>
<path style="fill:#fbe7da; stroke:none;" d="M144.667 81.3333L145.333 81.6667L144.667 81.3333z"/>
<path style="fill:#f7bb95; stroke:none;" d="M392 81L393 82L392 81z"/>
<path style="fill:#f6aa7b; stroke:none;" d="M142 82L143 83L142 82z"/>
<path style="fill:#f7bb95; stroke:none;" d="M308 82L309 83L308 82z"/>
<path style="fill:#f6aa7b; stroke:none;" d="M393 82L394 83L393 82z"/>
<path style="fill:#fbe7da; stroke:none;" d="M146.667 83.3333L147.333 83.6667L146.667 83.3333z"/>
<path style="fill:#f9caad; stroke:none;" d="M88 84L89 85L88 84z"/>
<path style="fill:#f7bb95; stroke:none;" d="M139 84L140 85L139 84z"/>
<path style="fill:#f6aa7b; stroke:none;" d="M311 84L312 85L311 84z"/>
<path style="fill:#f7bb95; stroke:none;" d="M87 85L88 86L87 85z"/>
<path style="fill:#f9caad; stroke:none;" d="M312 85L313 86L312 85M397 85L398 86L397 85z"/>
<path style="fill:#f7bb95; stroke:none;" d="M86 86L87 87L86 86z"/>
<path style="fill:#f59c65; stroke:none;" d="M136 86L137 87L136 86z"/>
<path style="fill:#f7bb95; stroke:none;" d="M398 86L399 87L398 86z"/>
<path style="fill:#f6aa7b; stroke:none;" d="M85 87L86 88L85 87M135 87L136 88L135 87M399 87L400 88L399 87z"/>
<path style="fill:#f59c65; stroke:none;" d="M84 88L85 89L84 88z"/>
<path style="fill:#f6aa7b; stroke:none;" d="M134 88L135 89L134 88M316 88L317 89L316 88z"/>
<path style="fill:#f7bb95; stroke:none;" d="M317 89L318 90L317 89M318 90L319 91L318 90z"/>
<path style="fill:#f9caad; stroke:none;" d="M403 90L404 91L403 90M319 91L320 92L319 91z"/>
<path style="fill:#f7bb95; stroke:none;" d="M404 91L405 92L404 91M320 92L321 93L320 92z"/>
<path style="fill:#f59c65; stroke:none;" d="M405 92L406 93L405 92z"/>
<path style="fill:#f7bb95; stroke:none;" d="M321 93L322 94L321 93z"/>
<path style="fill:#f6aa7b; stroke:none;" d="M322 94L323 95L322 94z"/>
<path style="fill:#f7bb95; stroke:none;" d="M409 95L410 96L409 95z"/>
<path style="fill:#f6aa7b; stroke:none;" d="M410 96L411 97L410 96M132.333 97.6667L132.667 98.3333L132.333 97.6667M325 98L326 99L325 98z"/>
<path style="fill:#f38b4b; stroke:none;" d="M132 99L132 103L132 99z"/>
<path style="fill:#f7bb95; stroke:none;" d="M329 99L329 101L331 99L329 99M414 99L415 100L414 99z"/>
<path style="fill:#f6aa7b; stroke:none;" d="M333 100L334 101L333 100z"/>
<path style="fill:#f59c65; stroke:none;" d="M415 100L416 101L415 100z"/>
<path style="fill:#f9caad; stroke:none;" d="M335 101L336 102L335 101z"/>
<path style="fill:#f6aa7b; stroke:none;" d="M70 102L71 103L70 102z"/>
<path style="fill:#fad8c3; stroke:none;" d="M327.333 102.667L327.667 103.333L327.333 102.667z"/>
<path style="fill:#f9caad; stroke:none;" d="M337 102L338 103L337 102z"/>
<path style="fill:#f7bb95; stroke:none;" d="M418 102L419 103L418 102M69 103L70 104L69 103z"/>
<path style="fill:#f9caad; stroke:none;" d="M332 103L329 104C330.522 104.855 332.945 105.288 332 103M339 103L340 104L339 103z"/>
<path style="fill:#fbe7da; stroke:none;" d="M420 103L419 105L421 105L420 103z"/>
<path style="fill:#f9caad; stroke:none;" d="M68 104L69 105L68 104z"/>
<path style="fill:#f6aa7b; stroke:none;" d="M341 104L342 105L341 104z"/>
<path style="fill:#f7bb95; stroke:none;" d="M131 105L132 106L131 105z"/>
<path style="fill:#fad8c3; stroke:none;" d="M119 108L121 110L121 108L119 108z"/>
<path style="fill:#f7bb95; stroke:none;" d="M420 108L421 109L420 108z"/>
<path style="fill:#f9caad; stroke:none;" d="M117 109L118 110L117 109z"/>
<path style="fill:#f7bb95; stroke:none;" d="M63 110L64 111L63 110z"/>
<path style="fill:#f59c65; stroke:none;" d="M115 110L116 111L115 110z"/>
<path style="fill:#f9caad; stroke:none;" d="M62 111L63 112L62 111z"/>
<path style="fill:#f7bb95; stroke:none;" d="M114 111L115 112L114 111z"/>
<path style="fill:#f6aa7b; stroke:none;" d="M348 111L349 112L348 111M423 112L424 113L423 112M118 113L118 117L118 113z"/>
<path style="fill:#f7bb95; stroke:none;" d="M349 113L350 114L349 113M424 113L425 114L424 113z"/>
<path style="fill:#f6aa7b; stroke:none;" d="M122 114L123 115L122 114z"/>
<path style="fill:#f9caad; stroke:none;" d="M425 114L426 115L425 114z"/>
<path style="fill:#f7bb95; stroke:none;" d="M59 115L60 116L59 115z"/>
<path style="fill:#f9caad; stroke:none;" d="M121 115L122 116L121 115z"/>
<path style="fill:#f6aa7b; stroke:none;" d="M350 115L351 116L350 115z"/>
<path style="fill:#f59c65; stroke:none;" d="M351 117L352 118L351 117z"/>
<path style="fill:#f6aa7b; stroke:none;" d="M354 117L354 120L356 117L354 117z"/>
<path style="fill:#f9caad; stroke:none;" d="M422.667 118.333L423.333 118.667L422.667 118.333z"/>
<path style="fill:#f7bb95; stroke:none;" d="M56 119L57 120L56 119M99 119L100 120L99 119z"/>
<path style="fill:#f59c65; stroke:none;" d="M101 119L102 120L101 119z"/>
<path style="fill:#f7bb95; stroke:none;" d="M429 119L430 120L429 119M98 120L99 121L98 120z"/>
<path style="fill:#f9caad; stroke:none;" d="M102 120L103 121L102 120z"/>
<path style="fill:#f7bb95; stroke:none;" d="M105 120L106 121L105 120M355 120L356 121L355 120M358 120L359 121L358 120M430.333 120.667L430.667 121.333L430.333 120.667z"/>
<path style="fill:#f6aa7b; stroke:none;" d="M97 121L98 122L97 121z"/>
<path style="fill:#f7bb95; stroke:none;" d="M103.667 121.333L104.333 121.667L103.667 121.333z"/>
<path style="fill:#f6aa7b; stroke:none;" d="M359 121L360 122L359 121M424 121L425 122L424 121M54 122L55 123L54 122M360 122L361 123L360 122z"/>
<path style="fill:#f9caad; stroke:none;" d="M53 123L54 124L53 123M354 123L355 124L354 123z"/>
<path style="fill:#f6aa7b; stroke:none;" d="M361 123L362 124L361 123z"/>
<path style="fill:#f9caad; stroke:none;" d="M355 124L356 125L355 124z"/>
<path style="fill:#f59c65; stroke:none;" d="M358 124L357 126L359 126L358 124z"/>
<path style="fill:#f6aa7b; stroke:none;" d="M362 124L363 125L362 124z"/>
<path style="fill:#f9caad; stroke:none;" d="M91.6667 125.333L92.3333 125.667L91.6667 125.333M363 125L364 126L363 125M51 126L52 127L51 126z"/>
<path style="fill:#f6aa7b; stroke:none;" d="M88 127L89 128L88 127z"/>
<path style="fill:#fad8c3; stroke:none;" d="M94.3333 127.667L94.6667 128.333L94.3333 127.667z"/>
<path style="fill:#f7bb95; stroke:none;" d="M366 127L367 128L366 127z"/>
<path style="fill:#f6aa7b; stroke:none;" d="M427.333 127.667L427.667 128.333L427.333 127.667z"/>
<path style="fill:#f9caad; stroke:none;" d="M87 128L88 129L87 128z"/>
<path style="fill:#f6aa7b; stroke:none;" d="M368 128L369 129L368 128z"/>
<path style="fill:#f9caad; stroke:none;" d="M49 129L50 130L49 129M86 129L87 130L86 129z"/>
<path style="fill:#f59c65; stroke:none;" d="M428.333 130.667L428.667 131.333L428.333 130.667z"/>
<path style="fill:#f9caad; stroke:none;" d="M437 130L437 132L439 130L437 130z"/>
<path style="fill:#f6aa7b; stroke:none;" d="M48 131L49 132L48 131z"/>
<path style="fill:#f9caad; stroke:none;" d="M373 131L374 132L373 131z"/>
<path style="fill:#f38b4b; stroke:none;" d="M438 131L439 132L438 131z"/>
<path style="fill:#f9caad; stroke:none;" d="M83 132L84 133L83 132z"/>
<path style="fill:#f6aa7b; stroke:none;" d="M375 132L376 133L375 132z"/>
<path style="fill:#f38b4b; stroke:none;" d="M425 132L425 135L427 132L425 132z"/>
<path style="fill:#f6aa7b; stroke:none;" d="M438.667 132.333L439.333 132.667L438.667 132.333z"/>
<path style="fill:#f9caad; stroke:none;" d="M82 133L83 134L82 133M376 133L377 134L376 133z"/>
<path style="fill:#f6aa7b; stroke:none;" d="M427 133L428 134L427 133z"/>
<path style="fill:#fad8c3; stroke:none;" d="M439 133C441.732 137.134 444.59 141.623 449 144C446.441 139.509 443.721 135.302 439 133z"/>
<path style="fill:#f7bb95; stroke:none;" d="M46 134L47 135L46 134M81 134L82 135L81 134M428 134L429 135L428 134M434 134L436 137L434 134M80 135L81 136L80 135M426 135L427 136L426 135z"/>
<path style="fill:#f59c65; stroke:none;" d="M430 135L431 136L430 135z"/>
<path style="fill:#f6aa7b; stroke:none;" d="M79 136L80 137L79 136z"/>
<path style="fill:#f7bb95; stroke:none;" d="M430.667 136.333L431.333 136.667L430.667 136.333z"/>
<path style="fill:#f6aa7b; stroke:none;" d="M78 137L79 138L78 137M427 137L428 138L427 137z"/>
<path style="fill:#fbe7da; stroke:none;" d="M431 137L435 141L435 137L431 137z"/>
<path style="fill:#f6aa7b; stroke:none;" d="M435 137L435 141C436.073 139.118 436.084 138.863 435 137z"/>
<path style="fill:#f59c65; stroke:none;" d="M77 138L78 139L77 138z"/>
<path style="fill:#f9caad; stroke:none;" d="M43 139L44 140L43 139z"/>
<path style="fill:#f38b4b; stroke:none;" d="M436.333 139.667L436.667 140.333L436.333 139.667z"/>
<path style="fill:#f7bb95; stroke:none;" d="M383 140L384 141L383 140z"/>
<path style="fill:#f6aa7b; stroke:none;" d="M429 140L430 141L429 140z"/>
<path style="fill:#f59c65; stroke:none;" d="M437 140L436 142L438 142L437 140z"/>
<path style="fill:#f7bb95; stroke:none;" d="M42 141L43 142L42 141z"/>
<path style="fill:#f59c65; stroke:none;" d="M384 141L385 142L384 141z"/>
<path style="fill:#f7bb95; stroke:none;" d="M430 141L431 142L430 141z"/>
<path style="fill:#fbe7da; stroke:none;" d="M380 142L387 149C385.347 145.533 383.395 143.779 380 142z"/>
<path style="fill:#f9caad; stroke:none;" d="M431 142L432 143L431 142M432 143L433 144L432 143z"/>
<path style="fill:#f6aa7b; stroke:none;" d="M386 144L387 145L386 144z"/>
<path style="fill:#f9caad; stroke:none;" d="M433 144L434 145L433 144M434 145L435 146L434 145z"/>
<path style="fill:#f38b4b; stroke:none;" d="M72.3333 146.667L72.6667 147.333L72.3333 146.667z"/>
<path style="fill:#f6aa7b; stroke:none;" d="M73.3333 146.667L73.6667 147.333L73.3333 146.667z"/>
<path style="fill:#f7bb95; stroke:none;" d="M68 149L69 150L68 149z"/>
<path style="fill:#f9caad; stroke:none;" d="M388 150L389 151L388 150z"/>
<path style="fill:#f7bb95; stroke:none;" d="M65 151L66 152L65 151M389 151L390 152L389 151z"/>
<path style="fill:#f38b4b; stroke:none;" d="M438 151L439 155L438 151z"/>
<path style="fill:#f6aa7b; stroke:none;" d="M390 152L391 153L390 152M440 155L442 158L440 155z"/>
<path style="fill:#f59c65; stroke:none;" d="M443.667 155.333L444.333 155.667L443.667 155.333z"/>
<path style="fill:#f7bb95; stroke:none;" d="M393 156L394 157L393 156M442 156L443 157L442 156z"/>
<path style="fill:#f59c65; stroke:none;" d="M58 157L59 158L58 157z"/>
<path style="fill:#f9caad; stroke:none;" d="M445.333 157.667L445.667 158.333L445.333 157.667z"/>
<path style="fill:#f59c65; stroke:none;" d="M57 158L58 159L57 158z"/>
<path style="fill:#f9caad; stroke:none;" d="M33 159L34 160L33 159z"/>
<path style="fill:#f38b4b; stroke:none;" d="M56.3333 159.667L56.6667 160.333L56.3333 159.667z"/>
<path style="fill:#f9caad; stroke:none;" d="M395 159L396 160L395 159z"/>
<path style="fill:#f59c65; stroke:none;" d="M445.333 159.667L445.667 160.333L445.333 159.667z"/>
<path style="fill:#f38b4b; stroke:none;" d="M33 160L32 164C33.303 162.332 33.553 162.008 33 160z"/>
<path style="fill:#f7bb95; stroke:none;" d="M397 162L398 163L397 162z"/>
<path style="fill:#f9caad; stroke:none;" d="M446.333 162.667L446.667 163.333L446.333 162.667z"/>
<path style="fill:#aaabab; stroke:none;" d="M258 163L261 164L258 163z"/>
<path style="fill:#f38b4b; stroke:none;" d="M31.3333 164.667L31.6667 165.333L31.3333 164.667z"/>
<path style="fill:#f7bb95; stroke:none;" d="M58 164L59 165L58 164z"/>
<path style="fill:#8f9090; stroke:none;" d="M253.667 164.333L254.333 164.667L253.667 164.333z"/>
<path style="fill:#343636; stroke:none;" d="M255.667 164.333L256.333 164.667L255.667 164.333z"/>
<path style="fill:#010101; stroke:none;" d="M264 265C253.466 262.077 241.465 267.229 230.001 264.606C204.569 258.787 189.898 229.505 203.818 208.001C210.338 197.929 228.038 193.487 232 183C239.787 188.222 257.25 181.557 264.571 188.448C270.785 194.298 280.898 206.478 282.991 215.09C289.923 243.618 273.928 281.06 258.201 303.961C251.45 313.791 233.265 328.858 233 341C222.448 344.599 212.685 359.66 205.625 367.981C199.504 375.195 186.736 384.144 178 387.796C174.315 389.336 159.049 392.315 164.248 398.124C174.841 409.963 183.94 395.448 193.104 391.09C200.862 387.4 202.664 381.188 208.495 375.799C226.328 359.319 248.326 339.093 257 316L261 317C278.794 288.427 301.768 258.097 305.105 224C305.963 215.231 309.912 210.254 307.306 201L300.143 182.213C293.463 172.779 268.361 162.975 257 164.454C247.618 165.675 240.88 171.472 233 176.2C213.828 187.704 190.483 203.667 182.684 226C177.261 241.531 181.863 265.612 196.001 275.347C202.985 280.156 213.008 280.662 221 281.76C234.463 283.61 259.573 280.727 264 265z"/>
<path style="fill:#4f5050; stroke:none;" d="M262 164L263 165L262 164z"/>
<path style="fill:#c0c1c1; stroke:none;" d="M263 164L264 165L263 164z"/>
<path style="fill:#f59c65; stroke:none;" d="M446.333 164.667L446.667 165.333L446.333 164.667z"/>
<path style="fill:#c0c1c1; stroke:none;" d="M248 165L249 166L248 165z"/>
<path style="fill:#343636; stroke:none;" d="M249 165L252 166L249 165z"/>
<path style="fill:#707272; stroke:none;" d="M265 165L266 166L265 165z"/>
<path style="fill:#c0c1c1; stroke:none;" d="M266 165L267 166L266 165z"/>
<path style="fill:#f6aa7b; stroke:none;" d="M399 165L400 166L399 165M58 166L59 167L58 166z"/>
<path style="fill:#8f9090; stroke:none;" d="M247 166L248 167L247 166z"/>
<path style="fill:#707272; stroke:none;" d="M268 166L269 167L268 166z"/>
<path style="fill:#f7bb95; stroke:none;" d="M57 167L58 168L57 167z"/>
<path style="fill:#4f5050; stroke:none;" d="M246 167L247 168L246 167z"/>
<path style="fill:#8f9090; stroke:none;" d="M271 167L272 168L271 167z"/>
<path style="fill:#f7bb95; stroke:none;" d="M447.333 167.667L447.667 168.333L447.333 167.667z"/>
<path style="fill:#f9caad; stroke:none;" d="M56 168L57 169L56 168z"/>
<path style="fill:#707272; stroke:none;" d="M274 168L275 169L274 168z"/>
<path style="fill:#c0c1c1; stroke:none;" d="M275 168L276 169L275 168z"/>
<path style="fill:#f38b4b; stroke:none;" d="M29.3333 169.667L29.6667 170.333L29.3333 169.667z"/>
<path style="fill:#f9caad; stroke:none;" d="M55 169L56 170L55 169z"/>
<path style="fill:#8f9090; stroke:none;" d="M243 169L244 170L243 169z"/>
<path style="fill:#4f5050; stroke:none;" d="M277 169L278 170L277 169z"/>
<path style="fill:#8f9090; stroke:none;" d="M278 169L279 170L278 169z"/>
<path style="fill:#f7bb95; stroke:none;" d="M54 170L55 171L54 170z"/>
<path style="fill:#343636; stroke:none;" d="M242 170L243 171L242 170z"/>
<path style="fill:#4f5050; stroke:none;" d="M281 170L282 171L281 170z"/>
<path style="fill:#aaabab; stroke:none;" d="M282 170L283 171L282 170z"/>
<path style="fill:#f6aa7b; stroke:none;" d="M53 171L54 172L53 171z"/>
<path style="fill:#8f9090; stroke:none;" d="M240 171L241 172L240 171z"/>
<path style="fill:#707272; stroke:none;" d="M285 171L286 172L285 171z"/>
<path style="fill:#c0c1c1; stroke:none;" d="M286 171L287 172L286 171z"/>
<path style="fill:#f6aa7b; stroke:none;" d="M448.333 171.667L448.667 172.333L448.333 171.667z"/>
<path style="fill:#4f5050; stroke:none;" d="M239 172L240 173L239 172z"/>
<path style="fill:#c0c1c1; stroke:none;" d="M287 172L288 173L287 172z"/>
<path style="fill:#f6aa7b; stroke:none;" d="M403 172L404 173L403 172z"/>
<path style="fill:#8f9090; stroke:none;" d="M237 173L238 174L237 173z"/>
<path style="fill:#f6aa7b; stroke:none;" d="M27.3333 174.667L27.6667 175.333L27.3333 174.667z"/>
<path style="fill:#f7bb95; stroke:none;" d="M51 174L52 175L51 174z"/>
<path style="fill:#c0c1c1; stroke:none;" d="M235 174L236 175L235 174z"/>
<path style="fill:#4f5050; stroke:none;" d="M288 174L289 175L288 174z"/>
<path style="fill:#f6aa7b; stroke:none;" d="M404 174L405 175L404 174z"/>
<path style="fill:#4f5050; stroke:none;" d="M234 175L235 176L234 175z"/>
<path style="fill:#343636; stroke:none;" d="M289 175L290 176L289 175z"/>
<path style="fill:#f59c65; stroke:none;" d="M449.333 175.667L449.667 176.333L449.333 175.667z"/>
<path style="fill:#8f9090; stroke:none;" d="M232 176L233 177L232 176z"/>
<path style="fill:#707272; stroke:none;" d="M291 176L292 177L291 176z"/>
<path style="fill:#f6aa7b; stroke:none;" d="M405 176L406 177L405 176M26.3333 177.667L26.6667 178.333L26.3333 177.667z"/>
<path style="fill:#aaabab; stroke:none;" d="M230 177L231 178L230 177z"/>
<path style="fill:#4f5050; stroke:none;" d="M293 177L294 178L293 177z"/>
<path style="fill:#c0c1c1; stroke:none;" d="M294 177L295 178L294 177z"/>
<path style="fill:#4f5050; stroke:none;" d="M229 178L230 179L229 178M295 178L296 179L295 178z"/>
<path style="fill:#f6aa7b; stroke:none;" d="M406 178L407 179L406 178M450.333 178.667L450.667 179.333L450.333 178.667z"/>
<path style="fill:#707272; stroke:none;" d="M227 179L228 180L227 179M297 179L298 180L297 179z"/>
<path style="fill:#f6aa7b; stroke:none;" d="M25.3333 180.667L25.6667 181.333L25.3333 180.667z"/>
<path style="fill:#f7bb95; stroke:none;" d="M48 180L47 184C48.6556 182.596 48.7511 182.046 48 180z"/>
<path style="fill:#aaabab; stroke:none;" d="M225 180L226 181L225 180z"/>
<path style="fill:#f6aa7b; stroke:none;" d="M407 180L408 181L407 180z"/>
<path style="fill:#f59c65; stroke:none;" d="M41 181L41 184L41 181M43 181L44 182L43 181z"/>
<path style="fill:#c0c1c1; stroke:none;" d="M223 181L224 182L223 181z"/>
<path style="fill:#343636; stroke:none;" d="M224 181L225 182L224 181z"/>
<path style="fill:#4f5050; stroke:none;" d="M222 182L223 183L222 182z"/>
<path style="fill:#f59c65; stroke:none;" d="M408 182L409 183L408 182z"/>
<path style="fill:#f6aa7b; stroke:none;" d="M451.333 182.667L451.667 183.333L451.333 182.667z"/>
<path style="fill:#8f9090; stroke:none;" d="M220 183L221 184L220 183z"/>
<path style="fill:#4f5050; stroke:none;" d="M232 183L233 184L232 183z"/>
<path style="fill:#343636; stroke:none;" d="M239.667 183.333L240.333 183.667L239.667 183.333z"/>
<path style="fill:#4f5050; stroke:none;" d="M245 183L246 184L245 183z"/>
<path style="fill:#aaabab; stroke:none;" d="M301 183L302 184L301 183z"/>
<path style="fill:#f59c65; stroke:none;" d="M24.3333 184.667L24.6667 185.333L24.3333 184.667z"/>
<path style="fill:#f7bb95; stroke:none;" d="M41 184L41 187L41 184z"/>
<path style="fill:#c0c1c1; stroke:none;" d="M218 184L219 185L218 184z"/>
<path style="fill:#8f9090; stroke:none;" d="M232 184L233 185L232 184z"/>
<path style="fill:#707272; stroke:none;" d="M237 184L238 185L237 184z"/>
<path style="fill:#c0c1c1; stroke:none;" d="M241 184L242 185L241 184z"/>
<path style="fill:#4f5050; stroke:none;" d="M242 184L243 185L242 184z"/>
<path style="fill:#343636; stroke:none;" d="M244 184L245 185L244 184z"/>
<path style="fill:#8f9090; stroke:none;" d="M247 184L248 185L247 184z"/>
<path style="fill:#343636; stroke:none;" d="M301 184L302 185L301 184z"/>
<path style="fill:#707272; stroke:none;" d="M217 185L218 186L217 185z"/>
<path style="fill:#343636; stroke:none;" d="M231 185L232 186L231 185z"/>
<path style="fill:#c0c1c1; stroke:none;" d="M232 185L233 186L232 185z"/>
<path style="fill:#4f5050; stroke:none;" d="M233.667 185.333L234.333 185.667L233.667 185.333z"/>
<path style="fill:#aaabab; stroke:none;" d="M235 185L236 186L235 185z"/>
<path style="fill:#fad8c3; stroke:none;" d="M243.667 185.333L244.333 185.667L243.667 185.333z"/>
<path style="fill:#8f9090; stroke:none;" d="M249 185L250 186L249 185z"/>
<path style="fill:#c0c1c1; stroke:none;" d="M215 186L216 187L215 186z"/>
<path style="fill:#8f9090; stroke:none;" d="M231 186L232 187L231 186M251 186L252 187L251 186z"/>
<path style="fill:#343636; stroke:none;" d="M252 186L253 187L252 186z"/>
<path style="fill:#707272; stroke:none;" d="M259 186L260 187L259 186z"/>
<path style="fill:#c0c1c1; stroke:none;" d="M260.667 186.333L261.333 186.667L260.667 186.333z"/>
<path style="fill:#707272; stroke:none;" d="M262 186L263 187L262 186z"/>
<path style="fill:#f7bb95; stroke:none;" d="M452.333 186.667L452.667 187.333L452.333 186.667z"/>
<path style="fill:#f6aa7b; stroke:none;" d="M23.3333 187.667L23.6667 188.333L23.3333 187.667z"/>
<path style="fill:#707272; stroke:none;" d="M214 187L215 188L214 187z"/>
<path style="fill:#4f5050; stroke:none;" d="M229 187L230 188L229 187z"/>
<path style="fill:#707272; stroke:none;" d="M254 187L258 188L254 187z"/>
<path style="fill:#8f9090; stroke:none;" d="M264 187L265 188L264 187M302 187L302 190L302 187z"/>
<path style="fill:#343636; stroke:none;" d="M213 188L214 189L213 188M227 188L228 189L227 188z"/>
<path style="fill:#c0c1c1; stroke:none;" d="M228 188L229 189L228 188z"/>
<path style="fill:#8f9090; stroke:none;" d="M265 188L266 189L265 188z"/>
<path style="fill:#aaabab; stroke:none;" d="M226 189L227 190L226 189z"/>
<path style="fill:#f6aa7b; stroke:none;" d="M411 189L412 190L411 189z"/>
<path style="fill:#aaabab; stroke:none;" d="M210 190L211 191L210 190z"/>
<path style="fill:#8f9090; stroke:none;" d="M224 190L225 191L224 190z"/>
<path style="fill:#4f5050; stroke:none;" d="M266 190L266 194L266 190z"/>
<path style="fill:#f59c65; stroke:none;" d="M22.3333 191.667L22.6667 192.333L22.3333 191.667z"/>
<path style="fill:#c0c1c1; stroke:none;" d="M209 191L210 192L209 191z"/>
<path style="fill:#707272; stroke:none;" d="M222 191L223 192L222 191z"/>
<path style="fill:#f9caad; stroke:none;" d="M453.333 191.667L453.667 192.333L453.333 191.667z"/>
<path style="fill:#f59c65; stroke:none;" d="M38 192L39 193L38 192z"/>
<path style="fill:#4f5050; stroke:none;" d="M220 192L221 193L220 192z"/>
<path style="fill:#707272; stroke:none;" d="M303 192L304 193L303 192z"/>
<path style="fill:#c0c1c1; stroke:none;" d="M219 193L220 194L219 193z"/>
<path style="fill:#f6aa7b; stroke:none;" d="M453.333 193.667L453.667 194.333L453.333 193.667z"/>
<path style="fill:#f9caad; stroke:none;" d="M21.3333 194.667L21.6667 195.333L21.3333 194.667M37.3333 194.667L37.6667 195.333L37.3333 194.667z"/>
<path style="fill:#4f5050; stroke:none;" d="M207 194L208 195L207 194z"/>
<path style="fill:#8f9090; stroke:none;" d="M217 194L218 195L217 194z"/>
<path style="fill:#707272; stroke:none;" d="M267 194L268 195L267 194z"/>
<path style="fill:#4f5050; stroke:none;" d="M304 194L305 195L304 194z"/>
<path style="fill:#fad8c3; stroke:none;" d="M413.333 194.667L413.667 195.333L413.333 194.667z"/>
<path style="fill:#8f9090; stroke:none;" d="M206 195L207 196L206 195z"/>
<path style="fill:#c0c1c1; stroke:none;" d="M216 195L217 196L216 195z"/>
<path style="fill:#aaabab; stroke:none;" d="M268 195L269 196L268 195z"/>
<path style="fill:#c0c1c1; stroke:none;" d="M305 195L306 196L305 195M205 196L206 197L205 196M215 196L216 197L215 196z"/>
<path style="fill:#343636; stroke:none;" d="M305 196L306 197L305 196z"/>
<path style="fill:#f7bb95; stroke:none;" d="M36.3333 197.667L36.6667 198.333L36.3333 197.667z"/>
<path style="fill:#c0c1c1; stroke:none;" d="M214 197L215 198L214 197z"/>
<path style="fill:#707272; stroke:none;" d="M271 197L272 198L271 197z"/>
<path style="fill:#aaabab; stroke:none;" d="M306 197L307 198L306 197M272 198L273 199L272 198z"/>
<path style="fill:#f7bb95; stroke:none;" d="M20.3333 199.667L20.6667 200.333L20.3333 199.667z"/>
<path style="fill:#c0c1c1; stroke:none;" d="M202 199L203 200L202 199M273 199L274 200L273 199z"/>
<path style="fill:#707272; stroke:none;" d="M307 199L307 202L307 199z"/>
<path style="fill:#8f9090; stroke:none;" d="M201 200L202 201L201 200z"/>
<path style="fill:#f7bb95; stroke:none;" d="M456 200L457 201L456 200z"/>
<path style="fill:#f6aa7b; stroke:none;" d="M35 201L37 205L35 201z"/>
<path style="fill:#f9caad; stroke:none;" d="M41 201L40 204L41 201z"/>
<path style="fill:#4f5050; stroke:none;" d="M200 201L201 202L200 201M209 201L210 202L209 201z"/>
<path style="fill:#aaabab; stroke:none;" d="M275 201L276 202L275 201z"/>
<path style="fill:#8f9090; stroke:none;" d="M208 202L209 203L208 202z"/>
<path style="fill:#343636; stroke:none;" d="M276 202L277 203L276 202z"/>
<path style="fill:#f9caad; stroke:none;" d="M416.333 202.667L416.667 203.333L416.333 202.667M19.3333 203.667L19.6667 204.333L19.3333 203.667z"/>
<path style="fill:#f6aa7b; stroke:none;" d="M38 203L39 204L38 203z"/>
<path style="fill:#c0c1c1; stroke:none;" d="M207 203L208 204L207 203z"/>
<path style="fill:#f7bb95; stroke:none;" d="M39 204L40 205L39 204z"/>
<path style="fill:#c0c1c1; stroke:none;" d="M206 204L207 205L206 204z"/>
<path style="fill:#4f5050; stroke:none;" d="M277 204L278 205L277 204z"/>
<path style="fill:#8f9090; stroke:none;" d="M308 204L308 207L308 204z"/>
<path style="fill:#f9caad; stroke:none;" d="M463 204L464 205L463 204z"/>
<path style="fill:#f59c65; stroke:none;" d="M19.3333 205.667L19.6667 206.333L19.3333 205.667z"/>
<path style="fill:#f6aa7b; stroke:none;" d="M38 205L39 206L38 205z"/>
<path style="fill:#aaabab; stroke:none;" d="M195 205L196 206L195 205z"/>
<path style="fill:#c0c1c1; stroke:none;" d="M205 205L206 206L205 205z"/>
<path style="fill:#f7bb95; stroke:none;" d="M417.333 205.667L417.667 206.333L417.333 205.667M464 205L465 206L464 205z"/>
<path style="fill:#343636; stroke:none;" d="M194 206L195 207L194 206z"/>
<path style="fill:#aaabab; stroke:none;" d="M204 206L205 207L204 206z"/>
<path style="fill:#4f5050; stroke:none;" d="M278 206L279 207L278 206z"/>
<path style="fill:#f9caad; stroke:none;" d="M465 206L466 207L465 206z"/>
<path style="fill:#c0c1c1; stroke:none;" d="M193 207L194 208L193 207z"/>
<path style="fill:#343636; stroke:none;" d="M203 207L204 208L203 207z"/>
<path style="fill:#c0c1c1; stroke:none;" d="M278 207L279 208L278 207z"/>
<path style="fill:#fad8c3; stroke:none;" d="M18 208L18 211L18 208z"/>
<path style="fill:#707272; stroke:none;" d="M193 208L194 209L193 208z"/>
<path style="fill:#aaabab; stroke:none;" d="M203 208L204 209L203 208z"/>
<path style="fill:#343636; stroke:none;" d="M279 208L280 209L279 208z"/>
<path style="fill:#aaabab; stroke:none;" d="M279 209L280 210L279 209z"/>
<path style="fill:#c0c1c1; stroke:none;" d="M309 209L309 212L309 209z"/>
<path style="fill:#f9caad; stroke:none;" d="M467 209L468 210L467 209z"/>
<path style="fill:#c0c1c1; stroke:none;" d="M192 210L193 211L192 210z"/>
<path style="fill:#8f9090; stroke:none;" d="M202 210L203 211L202 210z"/>
<path style="fill:#f6aa7b; stroke:none;" d="M18.3333 211.667L18.6667 212.333L18.3333 211.667z"/>
<path style="fill:#8f9090; stroke:none;" d="M280 211L281 212L280 211z"/>
<path style="fill:#f59c65; stroke:none;" d="M419.333 211.667L419.667 212.333L419.333 211.667z"/>
<path style="fill:#fad8c3; stroke:none;" d="M468.333 211.667L468.667 212.333L468.333 211.667z"/>
<path style="fill:#343636; stroke:none;" d="M201 212L202 213L201 212z"/>
<path style="fill:#c0c1c1; stroke:none;" d="M282 212L283 213L282 212z"/>
<path style="fill:#aaabab; stroke:none;" d="M201 213L202 214L201 213z"/>
<path style="fill:#343636; stroke:none;" d="M308 213L309 214L308 213z"/>
<path style="fill:#f7bb95; stroke:none;" d="M419.333 213.667L419.667 214.333L419.333 213.667M467 213L468 214L467 213M30 214L31 215L30 214z"/>
<path style="fill:#343636; stroke:none;" d="M189 214L190 215L189 214z"/>
<path style="fill:#8f9090; stroke:none;" d="M283.333 214.667L283.667 215.333L283.333 214.667z"/>
<path style="fill:#c0c1c1; stroke:none;" d="M308 214L309 215L308 214z"/>
<path style="fill:#fad8c3; stroke:none;" d="M17 215L17 218L17 215z"/>
<path style="fill:#f59c65; stroke:none;" d="M29 215L30 216L29 215z"/>
<path style="fill:#4f5050; stroke:none;" d="M188 215L189 216L188 215M200 215L201 216L200 215z"/>
<path style="fill:#c0c1c1; stroke:none;" d="M187 216L188 217L187 216M200 216L201 217L200 216z"/>
<path style="fill:#4f5050; stroke:none;" d="M283 216L284 217L283 216z"/>
<path style="fill:#aaabab; stroke:none;" d="M307 216L308 217L307 216z"/>
<path style="fill:#f6aa7b; stroke:none;" d="M465 216L465 221L465 216z"/>
<path style="fill:#aaabab; stroke:none;" d="M199 217L200 218L199 217z"/>
<path style="fill:#f38b4b; stroke:none;" d="M420 217L420 220L420 217z"/>
<path style="fill:#f7bb95; stroke:none;" d="M17.3333 218.667L17.6667 219.333L17.3333 218.667z"/>
<path style="fill:#8f9090; stroke:none;" d="M186 218L187 219L186 218z"/>
<path style="fill:#aaabab; stroke:none;" d="M306 218L307 219L306 218z"/>
<path style="fill:#343636; stroke:none;" d="M196 219L197 220L196 219z"/>
<path style="fill:#8f9090; stroke:none;" d="M282 219L282 222L282 219z"/>
<path style="fill:#f6aa7b; stroke:none;" d="M26 220L27 221L26 220z"/>
<path style="fill:#707272; stroke:none;" d="M185 220L186 221L185 220z"/>
<path style="fill:#c0c1c1; stroke:none;" d="M196.333 220.667L196.667 221.333L196.333 220.667M305 220L305 223L305 220z"/>
<path style="fill:#f7bb95; stroke:none;" d="M420.333 220.667L420.667 221.333L420.333 220.667z"/>
<path style="fill:#f38b4b; stroke:none;" d="M469 221C469.168 223.403 469.197 224.46 471 226L469 221z"/>
<path style="fill:#fbe7da; stroke:none;" d="M16 222L16 231C17.2561 228.006 17.2561 224.994 16 222z"/>
<path style="fill:#4f5050; stroke:none;" d="M184 222L185 223L184 222M196 222L197 223L196 222z"/>
<path style="fill:#f7bb95; stroke:none;" d="M470.333 222.667L470.667 223.333L470.333 222.667z"/>
<path style="fill:#c0c1c1; stroke:none;" d="M183 223L184 224L183 223z"/>
<path style="fill:#8f9090; stroke:none;" d="M197 223L198 224L197 223M305 223L305 226L305 223z"/>
<path style="fill:#f7bb95; stroke:none;" d="M466.333 223.667L466.667 224.333L466.333 223.667z"/>
<path style="fill:#c0c1c1; stroke:none;" d="M198.333 224.667L198.667 225.333L198.333 224.667z"/>
<path style="fill:#707272; stroke:none;" d="M283.333 224.667L283.667 225.333L283.333 224.667z"/>
<path style="fill:#fbe7da; stroke:none;" d="M24 225L24 229L24 225z"/>
<path style="fill:#8f9090; stroke:none;" d="M182 225L183 226L182 225z"/>
<path style="fill:#c0c1c1; stroke:none;" d="M283.333 226.667L283.667 227.333L283.333 226.667z"/>
<path style="fill:#4f5050; stroke:none;" d="M305 226L305 231L305 226z"/>
<path style="fill:#f7bb95; stroke:none;" d="M471.333 226.667L471.667 227.333L471.333 226.667z"/>
<path style="fill:#8f9090; stroke:none;" d="M181 227L181 230L181 227z"/>
<path style="fill:#4f5050; stroke:none;" d="M197 227L198 228L197 227z"/>
<path style="fill:#f6aa7b; stroke:none;" d="M421 227L421 230L421 227z"/>
<path style="fill:#f9caad; stroke:none;" d="M467.667 227.333L468.333 227.667L467.667 227.333z"/>
<path style="fill:#aaabab; stroke:none;" d="M197 228L197 233L197 228z"/>
<path style="fill:#f38b4b; stroke:none;" d="M23 229L23 232L23 229z"/>
<path style="fill:#343636; stroke:none;" d="M181.333 230.667L181.667 231.333L181.333 230.667z"/>
<path style="fill:#707272; stroke:none;" d="M284 230L284 233L284 230z"/>
<path style="fill:#fad8c3; stroke:none;" d="M421 230L421 235L421 230z"/>
<path style="fill:#f9caad; stroke:none;" d="M472.333 230.667L472.667 231.333L472.333 230.667z"/>
<path style="fill:#8f9090; stroke:none;" d="M305 231L306 232L305 231z"/>
<path style="fill:#f59c65; stroke:none;" d="M17 232L17 235L17 232z"/>
<path style="fill:#f9caad; stroke:none;" d="M23 232L23 257C25.4129 251.25 25.4129 237.75 23 232z"/>
<path style="fill:#f59c65; stroke:none;" d="M472.333 232.667L472.667 233.333L472.333 232.667z"/>
<path style="fill:#c0c1c1; stroke:none;" d="M180 233L180 236L180 233z"/>
<path style="fill:#343636; stroke:none;" d="M197 233L198 234L197 233z"/>
<path style="fill:#c0c1c1; stroke:none;" d="M198 234L199 235L198 234z"/>
<path style="fill:#f7bb95; stroke:none;" d="M17.3333 235.667L17.6667 236.333L17.3333 235.667z"/>
<path style="fill:#343636; stroke:none;" d="M198 235L199 236L198 235z"/>
<path style="fill:#aaabab; stroke:none;" d="M283 235L284 236L283 235z"/>
<path style="fill:#8f9090; stroke:none;" d="M304 235L304 238L304 235z"/>
<path style="fill:#f9caad; stroke:none;" d="M473.333 235.667L473.667 236.333L473.333 235.667z"/>
<path style="fill:#4f5050; stroke:none;" d="M180.333 236.667L180.667 237.333L180.333 236.667z"/>
<path style="fill:#aaabab; stroke:none;" d="M199 236L200 237L199 236z"/>
<path style="fill:#707272; stroke:none;" d="M283 236L284 237L283 236z"/>
<path style="fill:#f6aa7b; stroke:none;" d="M422 236L422 259C424.284 253.557 424.284 241.443 422 236z"/>
<path style="fill:#f59c65; stroke:none;" d="M473.333 237.667L473.667 238.333L473.333 237.667z"/>
<path style="fill:#8f9090; stroke:none;" d="M200 238L201 239L200 238z"/>
<path style="fill:#343636; stroke:none;" d="M304.333 238.667L304.667 239.333L304.333 238.667z"/>
<path style="fill:#c0c1c1; stroke:none;" d="M282 239L283 240L282 239z"/>
<path style="fill:#f38b4b; stroke:none;" d="M473 239L474 248C475.104 244.92 474.404 241.922 473 239z"/>
<path style="fill:#f59c65; stroke:none;" d="M18 240L18 243L18 240z"/>
<path style="fill:#fad8c3; stroke:none;" d="M179.333 240.667L179.667 241.333L179.333 240.667z"/>
<path style="fill:#707272; stroke:none;" d="M201 240L202 241L201 240z"/>
<path style="fill:#8f9090; stroke:none;" d="M282 240L283 241L282 240z"/>
<path style="fill:#aaabab; stroke:none;" d="M304 240L305 241L304 240z"/>
<path style="fill:#4f5050; stroke:none;" d="M282 241L283 242L282 241z"/>
<path style="fill:#8f9090; stroke:none;" d="M302 241L303 242L302 241z"/>
<path style="fill:#f9caad; stroke:none;" d="M474 241L474 244L474 241z"/>
<path style="fill:#707272; stroke:none;" d="M202 242L203 243L202 242z"/>
<path style="fill:#c0c1c1; stroke:none;" d="M301 242L301 245L301 242z"/>
<path style="fill:#fad8c3; stroke:none;" d="M18.3333 243.667L18.6667 244.333L18.3333 243.667z"/>
<path style="fill:#4f5050; stroke:none;" d="M180 243L181 244L180 243z"/>
<path style="fill:#8f9090; stroke:none;" d="M180 244L181 245L180 244z"/>
<path style="fill:#4f5050; stroke:none;" d="M203 244L204 245L203 244z"/>
<path style="fill:#8f9090; stroke:none;" d="M281 244L282 245L281 244z"/>
<path style="fill:#c0c1c1; stroke:none;" d="M204 245L205 246L204 245z"/>
<path style="fill:#4f5050; stroke:none;" d="M281 245L282 246L281 245z"/>
<path style="fill:#f6aa7b; stroke:none;" d="M19.3333 246.667L19.6667 247.333L19.3333 246.667z"/>
<path style="fill:#343636; stroke:none;" d="M204 246L205 247L204 246z"/>
<path style="fill:#707272; stroke:none;" d="M205 247L206 248L205 247z"/>
<path style="fill:#4f5050; stroke:none;" d="M300 247L301 248L300 247z"/>
<path style="fill:#fbe7da; stroke:none;" d="M475 247L475 250L475 247z"/>
<path style="fill:#fad8c3; stroke:none;" d="M19.3333 248.667L19.6667 249.333L19.3333 248.667z"/>
<path style="fill:#707272; stroke:none;" d="M181 248L182 249L181 248z"/>
<path style="fill:#8f9090; stroke:none;" d="M206 248L207 249L206 248z"/>
<path style="fill:#c0c1c1; stroke:none;" d="M300 248L301 249L300 248z"/>
<path style="fill:#aaabab; stroke:none;" d="M181 249L182 250L181 249M207 249L208 250L207 249z"/>
<path style="fill:#4f5050; stroke:none;" d="M281 249L282 250L281 249z"/>
<path style="fill:#aaabab; stroke:none;" d="M208 250L209 251L208 250M281.333 250.667L281.667 251.333L281.333 250.667z"/>
<path style="fill:#8f9090; stroke:none;" d="M299 250L300 251L299 250z"/>
<path style="fill:#f59c65; stroke:none;" d="M475 250L475 255L475 250z"/>
<path style="fill:#f6aa7b; stroke:none;" d="M20.3333 251.667L20.6667 252.333L20.3333 251.667z"/>
<path style="fill:#c0c1c1; stroke:none;" d="M209 251L210 252L209 251z"/>
<path style="fill:#4f5050; stroke:none;" d="M182 252L183 253L182 252z"/>
<path style="fill:#707272; stroke:none;" d="M281 252L282 253L281 252z"/>
<path style="fill:#8f9090; stroke:none;" d="M298 252L299 253L298 252z"/>
<path style="fill:#fbe7da; stroke:none;" d="M20.3333 253.667L20.6667 254.333L20.3333 253.667z"/>
<path style="fill:#8f9090; stroke:none;" d="M182 253L183 254L182 253z"/>
<path style="fill:#c0c1c1; stroke:none;" d="M280 254L281 255L280 254z"/>
<path style="fill:#aaabab; stroke:none;" d="M297 254L298 255L297 254z"/>
<path style="fill:#343636; stroke:none;" d="M280 255L281 256L280 255M296 255L297 256L296 255z"/>
<path style="fill:#f7bb95; stroke:none;" d="M21.3333 256.667L21.6667 257.333L21.3333 256.667z"/>
<path style="fill:#707272; stroke:none;" d="M183 256L184 257L183 256z"/>
<path style="fill:#c0c1c1; stroke:none;" d="M214 256L215 257L214 256M279 256L280 257L279 256M296 256L297 257L296 256z"/>
<path style="fill:#aaabab; stroke:none;" d="M183 257L184 258L183 257z"/>
<path style="fill:#707272; stroke:none;" d="M215 257L216 258L215 257z"/>
<path style="fill:#343636; stroke:none;" d="M279 257L280 258L279 257z"/>
<path style="fill:#4f5050; stroke:none;" d="M295 257L296 258L295 257z"/>
<path style="fill:#f38b4b; stroke:none;" d="M22 258L22 261L22 258z"/>
<path style="fill:#8f9090; stroke:none;" d="M217 258L218 259L217 258z"/>
<path style="fill:#c0c1c1; stroke:none;" d="M278 258L279 259L278 258z"/>
<path style="fill:#4f5050; stroke:none;" d="M184 259L185 260L184 259z"/>
<path style="fill:#343636; stroke:none;" d="M219 259L220 260L219 259z"/>
<path style="fill:#8f9090; stroke:none;" d="M220 259L223 260L220 259z"/>
<path style="fill:#343636; stroke:none;" d="M278 259L279 260L278 259z"/>
<path style="fill:#707272; stroke:none;" d="M294 259L295 260L294 259z"/>
<path style="fill:#fad8c3; stroke:none;" d="M476 259L476 264L476 259M11.6667 260.333L12.3333 260.667L11.6667 260.333z"/>
<path style="fill:#aaabab; stroke:none;" d="M184 260L185 261L184 260z"/>
<path style="fill:#c0c1c1; stroke:none;" d="M277 260L278 261L277 260z"/>
<path style="fill:#f7bb95; stroke:none;" d="M10 261L11 262L10 261z"/>
<path style="fill:#ef6b1b; stroke:none;" d="M11 261C7.74991 268.343 6.96726 273.88 14 279L13 261L11 261z"/>
<path style="fill:#343636; stroke:none;" d="M223 261L224 262L223 261M277 261L278 262L277 261z"/>
<path style="fill:#707272; stroke:none;" d="M293 261L294 262L293 261z"/>
<path style="fill:#fad8c3; stroke:none;" d="M421 261L421 268C422.059 265.466 422.059 263.534 421 261M13 262L13 271C14.2561 268.006 14.2561 264.994 13 262z"/>
<path style="fill:#8f9090; stroke:none;" d="M185 262L186 263L185 262z"/>
<path style="fill:#4f5050; stroke:none;" d="M224 262L225 263L224 262z"/>
<path style="fill:#c0c1c1; stroke:none;" d="M276 262L277 263L276 262z"/>
<path style="fill:#f6aa7b; stroke:none;" d="M9.33333 263.667L9.66667 264.333L9.33333 263.667z"/>
<path style="fill:#aaabab; stroke:none;" d="M226 263L227 264L226 263z"/>
<path style="fill:#c0c1c1; stroke:none;" d="M255 263L256 264L255 263z"/>
<path style="fill:#4f5050; stroke:none;" d="M258 263L259 264L258 263z"/>
<path style="fill:#aaabab; stroke:none;" d="M259 263L260 264L259 263z"/>
<path style="fill:#343636; stroke:none;" d="M276.333 263.667L276.667 264.333L276.333 263.667z"/>
<path style="fill:#8f9090; stroke:none;" d="M292 263L293 264L292 263M186 264L187 265L186 264z"/>
<path style="fill:#343636; stroke:none;" d="M228 264L237 265L228 264z"/>
<path style="fill:#4f5050; stroke:none;" d="M237 264L241 265L237 264z"/>
<path style="fill:#8f9090; stroke:none;" d="M241 264L242 265L241 264M254 264L255 265L254 264z"/>
<path style="fill:#707272; stroke:none;" d="M262 264L263 265L262 264z"/>
<path style="fill:#f59c65; stroke:none;" d="M476 264L476 278C477.667 274.028 477.667 267.972 476 264z"/>
<path style="fill:#707272; stroke:none;" d="M244 265L245 266L244 265z"/>
<path style="fill:#aaabab; stroke:none;" d="M245 265L246 266L245 265M252 265L253 266L252 265z"/>
<path style="fill:#343636; stroke:none;" d="M253 265L254 266L253 265z"/>
<path style="fill:#707272; stroke:none;" d="M264.333 265.667L264.667 266.333L264.333 265.667z"/>
<path style="fill:#aaabab; stroke:none;" d="M291 265L292 266L291 265z"/>
<path style="fill:#f7bb95; stroke:none;" d="M8.33333 266.667L8.66667 267.333L8.33333 266.667z"/>
<path style="fill:#8f9090; stroke:none;" d="M187 266L188 267L187 266z"/>
<path style="fill:#4f5050; stroke:none;" d="M248 266L251 267L248 266z"/>
<path style="fill:#343636; stroke:none;" d="M290 266L291 267L290 266M188 267L189 268L188 267z"/>
<path style="fill:#c0c1c1; stroke:none;" d="M290 267L291 268L290 267M263 268L264 269L263 268z"/>
<path style="fill:#aaabab; stroke:none;" d="M275 268L276 269L275 268z"/>
<path style="fill:#4f5050; stroke:none;" d="M289 268L290 269L289 268z"/>
<path style="fill:#f6aa7b; stroke:none;" d="M421 268L421 271L421 268z"/>
<path style="fill:#c0c1c1; stroke:none;" d="M189 269L190 270L189 269z"/>
<path style="fill:#8f9090; stroke:none;" d="M262 269L263 270L262 269z"/>
<path style="fill:#707272; stroke:none;" d="M275 269L276 270L275 269z"/>
<path style="fill:#4f5050; stroke:none;" d="M288 269L289 270L288 269z"/>
<path style="fill:#aaabab; stroke:none;" d="M190 270L191 271L190 270z"/>
<path style="fill:#707272; stroke:none;" d="M261 270L262 271L261 270z"/>
<path style="fill:#343636; stroke:none;" d="M287 270L288 271L287 270z"/>
<path style="fill:#f6aa7b; stroke:none;" d="M7.33333 271.667L7.66667 272.333L7.33333 271.667z"/>
<path style="fill:#f59c65; stroke:none;" d="M13 271L13 277C13.9511 274.715 13.9511 273.285 13 271z"/>
<path style="fill:#707272; stroke:none;" d="M191 271L192 272L191 271z"/>
<path style="fill:#8f9090; stroke:none;" d="M260 271L261 272L260 271z"/>
<path style="fill:#4f5050; stroke:none;" d="M192 272L193 273L192 272z"/>
<path style="fill:#c0c1c1; stroke:none;" d="M259 272L260 273L259 272z"/>
<path style="fill:#707272; stroke:none;" d="M274 272L275 273L274 272z"/>
<path style="fill:#8f9090; stroke:none;" d="M286 272L287 273L286 272z"/>
<path style="fill:#4f5050; stroke:none;" d="M193 273L194 274L193 273M257 273L258 274L257 273z"/>
<path style="fill:#707272; stroke:none;" d="M194 274L195 275L194 274z"/>
<path style="fill:#8f9090; stroke:none;" d="M256 274L257 275L256 274M273 274L274 275L273 274M195 275L196 276L195 275z"/>
<path style="fill:#f7bb95; stroke:none;" d="M420 275L420 278L420 275z"/>
<path style="fill:#c0c1c1; stroke:none;" d="M196 276L197 277L196 276z"/>
<path style="fill:#343636; stroke:none;" d="M197 276L198 277L197 276z"/>
<path style="fill:#707272; stroke:none;" d="M253 276L254 277L253 276z"/>
<path style="fill:#8f9090; stroke:none;" d="M272 276L273 277L272 276z"/>
<path style="fill:#343636; stroke:none;" d="M285 276L286 277L285 276z"/>
<path style="fill:#707272; stroke:none;" d="M199 277L200 278L199 277z"/>
<path style="fill:#4f5050; stroke:none;" d="M204.667 277.333L205.333 277.667L204.667 277.333z"/>
<path style="fill:#c0c1c1; stroke:none;" d="M252 277L253 278L252 277z"/>
<path style="fill:#8f9090; stroke:none;" d="M285 277L286 278L285 277z"/>
<path style="fill:#aaabab; stroke:none;" d="M202 278L203 279L202 278z"/>
<path style="fill:#8f9090; stroke:none;" d="M207 278L208 279L207 278z"/>
<path style="fill:#343636; stroke:none;" d="M249 278L250 279L249 278z"/>
<path style="fill:#8f9090; stroke:none;" d="M250 278L251 279L250 278M271 278L272 279L271 278z"/>
<path style="fill:#707272; stroke:none;" d="M284 278L285 279L284 278z"/>
<path style="fill:#f7bb95; stroke:none;" d="M476.333 278.667L476.667 279.333L476.333 278.667z"/>
<path style="fill:#343636; stroke:none;" d="M208 279L209 280L208 279z"/>
<path style="fill:#4f5050; stroke:none;" d="M246 279L247 280L246 279z"/>
<path style="fill:#aaabab; stroke:none;" d="M247 279L248 280L247 279z"/>
<path style="fill:#343636; stroke:none;" d="M283 279L284 280L283 279z"/>
<path style="fill:#4f5050; stroke:none;" d="M242 280L243 281L242 280z"/>
<path style="fill:#8f9090; stroke:none;" d="M243 280L244 281L243 280M270 280L270 283L270 280z"/>
<path style="fill:#f9caad; stroke:none;" d="M419 280L419 283L419 280z"/>
<path style="fill:#fbe7da; stroke:none;" d="M476 280L476 285L476 280z"/>
<path style="fill:#aaabab; stroke:none;" d="M210 281L211 282L210 281z"/>
<path style="fill:#343636; stroke:none;" d="M211 281L212 282L211 281z"/>
<path style="fill:#707272; stroke:none;" d="M217 281L218 282L217 281z"/>
<path style="fill:#c0c1c1; stroke:none;" d="M218 281L219 282L218 281z"/>
<path style="fill:#4f5050; stroke:none;" d="M221 281L222 282L221 281z"/>
<path style="fill:#343636; stroke:none;" d="M238 281L239 282L238 281z"/>
<path style="fill:#707272; stroke:none;" d="M239 281L240 282L239 281z"/>
<path style="fill:#c0c1c1; stroke:none;" d="M240 281L241 282L240 281z"/>
<path style="fill:#707272; stroke:none;" d="M282 281L283 282L282 281M213.667 282.333L214.333 282.667L213.667 282.333z"/>
<path style="fill:#c0c1c1; stroke:none;" d="M215 282L216 283L215 282z"/>
<path style="fill:#aaabab; stroke:none;" d="M222 282L223 283L222 282z"/>
<path style="fill:#343636; stroke:none;" d="M225 282L235 283L225 282z"/>
<path style="fill:#707272; stroke:none;" d="M235 282L236 283L235 282z"/>
<path style="fill:#aaabab; stroke:none;" d="M236 282L237 283L236 282M270 283L270 286L270 283z"/>
<path style="fill:#343636; stroke:none;" d="M281 283L282 284L281 283z"/>
<path style="fill:#f38b4b; stroke:none;" d="M419.333 283.667L419.667 284.333L419.333 283.667z"/>
<path style="fill:#8f9090; stroke:none;" d="M281 284L282 285L281 284z"/>
<path style="fill:#4f5050; stroke:none;" d="M280 286L281 287L280 286z"/>
<path style="fill:#f7bb95; stroke:none;" d="M418 286L418 289L418 286z"/>
<path style="fill:#aaabab; stroke:none;" d="M280 287L281 288L280 287z"/>
<path style="fill:#f59c65; stroke:none;" d="M475 287L475 290L475 287z"/>
<path style="fill:#707272; stroke:none;" d="M268 288L269 289L268 288z"/>
<path style="fill:#c0c1c1; stroke:none;" d="M267 289L268 290L267 289z"/>
<path style="fill:#aaabab; stroke:none;" d="M279 289L280 290L279 289z"/>
<path style="fill:#8f9090; stroke:none;" d="M277 290L278 291L277 290z"/>
<path style="fill:#f7bb95; stroke:none;" d="M475.333 290.667L475.667 291.333L475.333 290.667z"/>
<path style="fill:#4f5050; stroke:none;" d="M266 291L267 292L266 291z"/>
<path style="fill:#f6aa7b; stroke:none;" d="M417.333 291.667L417.667 292.333L417.333 291.667z"/>
<path style="fill:#8f9090; stroke:none;" d="M265 292L266 293L265 292z"/>
<path style="fill:#4f5050; stroke:none;" d="M275 292L276 293L275 292z"/>
<path style="fill:#aaabab; stroke:none;" d="M275 293L276 294L275 293z"/>
<path style="fill:#343636; stroke:none;" d="M264 294L265 295L264 294z"/>
<path style="fill:#707272; stroke:none;" d="M263 295L264 296L263 295M274 295L275 296L274 295z"/>
<path style="fill:#f6aa7b; stroke:none;" d="M416.333 295.667L416.667 296.333L416.333 295.667z"/>
<path style="fill:#f59c65; stroke:none;" d="M474 295L474 298L474 295z"/>
<path style="fill:#c0c1c1; stroke:none;" d="M262 296L263 297L262 296z"/>
<path style="fill:#fad8c3; stroke:none;" d="M20.6667 297.333L21.3333 297.667L20.6667 297.333z"/>
<path style="fill:#4f5050; stroke:none;" d="M273 297L274 298L273 297z"/>
<path style="fill:#f6aa7b; stroke:none;" d="M18 300L21 298L18 300z"/>
<path style="fill:#f38b4b; stroke:none;" d="M21 298L25 305C25.9336 301.452 24.055 299.602 21 298z"/>
<path style="fill:#4f5050; stroke:none;" d="M261 298L262 299L261 298z"/>
<path style="fill:#f9caad; stroke:none;" d="M474.333 298.667L474.667 299.333L474.333 298.667z"/>
<path style="fill:#aaabab; stroke:none;" d="M260 299L261 300L260 299z"/>
<path style="fill:#4f5050; stroke:none;" d="M272 299L273 300L272 299z"/>
<path style="fill:#f38b4b; stroke:none;" d="M415.333 299.667L415.667 300.333L415.333 299.667z"/>
<path style="fill:#f6aa7b; stroke:none;" d="M15.6667 300.333L16.3333 300.667L15.6667 300.333z"/>
<path style="fill:#ef6b1b; stroke:none;" d="M15 301L18 307L19 300L15 301z"/>
<path style="fill:#f59c65; stroke:none;" d="M18 301L18 305L18 301z"/>
<path style="fill:#8f9090; stroke:none;" d="M259 301L260 302L259 301z"/>
<path style="fill:#707272; stroke:none;" d="M271 301L272 302L271 301z"/>
<path style="fill:#f9caad; stroke:none;" d="M449 301L452 302L449 301z"/>
<path style="fill:#f59c65; stroke:none;" d="M414.333 302.667L414.667 303.333L414.333 302.667z"/>
<path style="fill:#f7bb95; stroke:none;" d="M473.333 302.667L473.667 303.333L473.333 302.667z"/>
<path style="fill:#aaabab; stroke:none;" d="M270 303L271 304L270 303z"/>
<path style="fill:#f6aa7b; stroke:none;" d="M447 303L448 304L447 303M454 303L455 304L454 303M26 304L26 308L26 304z"/>
<path style="fill:#8f9090; stroke:none;" d="M258 304L259 305L258 304z"/>
<path style="fill:#4f5050; stroke:none;" d="M269 304L270 305L269 304z"/>
<path style="fill:#f59c65; stroke:none;" d="M456 304L459 305L456 304z"/>
<path style="fill:#f6aa7b; stroke:none;" d="M460 304L460 312C461.161 309.23 461.161 306.77 460 304z"/>
<path style="fill:#f59c65; stroke:none;" d="M413.333 305.667L413.667 306.333L413.333 305.667z"/>
<path style="fill:#f6aa7b; stroke:none;" d="M446 305L447 306L446 305z"/>
<path style="fill:#f7bb95; stroke:none;" d="M19 306L18 308L19 306z"/>
<path style="fill:#c0c1c1; stroke:none;" d="M256 306L257 307L256 306z"/>
<path style="fill:#8f9090; stroke:none;" d="M268 306L269 307L268 306z"/>
<path style="fill:#f38b4b; stroke:none;" d="M19 307L21 312C21.375 309.581 20.6927 308.782 19 307z"/>
<path style="fill:#f9caad; stroke:none;" d="M27 307L27 310L27 307z"/>
<path style="fill:#4f5050; stroke:none;" d="M255 307L256 308L255 307M267 307L268 308L267 307z"/>
<path style="fill:#f9caad; stroke:none;" d="M472.333 307.667L472.667 308.333L472.333 307.667z"/>
<path style="fill:#f38b4b; stroke:none;" d="M412.333 308.667L412.667 309.333L412.333 308.667z"/>
<path style="fill:#fad8c3; stroke:none;" d="M445 308L445 312L445 308z"/>
<path style="fill:#c0c1c1; stroke:none;" d="M266 309L267 310L266 309z"/>
<path style="fill:#4f5050; stroke:none;" d="M252 310L253 311L252 310z"/>
<path style="fill:#707272; stroke:none;" d="M265 310L266 311L265 310z"/>
<path style="fill:#4f5050; stroke:none;" d="M264 311L265 312L264 311z"/>
<path style="fill:#f6aa7b; stroke:none;" d="M470 311L470 314L472 311L470 311z"/>
<path style="fill:#fad8c3; stroke:none;" d="M21 312L23 316C23.3689 313.777 22.8595 313.265 21 312z"/>
<path style="fill:#707272; stroke:none;" d="M251 312L252 313L251 312z"/>
<path style="fill:#f59c65; stroke:none;" d="M449 312L449 318C449.951 315.715 449.951 314.285 449 312M466 312L467 313L466 312z"/>
<path style="fill:#f9caad; stroke:none;" d="M410 313L411 314L410 313z"/>
<path style="fill:#aaabab; stroke:none;" d="M262 314L263 315L262 314z"/>
<path style="fill:#f7bb95; stroke:none;" d="M465 314L466 315L465 314z"/>
<path style="fill:#707272; stroke:none;" d="M249 315L250 316L249 315z"/>
<path style="fill:#4f5050; stroke:none;" d="M261 315L262 316L261 315z"/>
<path style="fill:#707272; stroke:none;" d="M248 316L249 317L248 316z"/>
<path style="fill:#8f9090; stroke:none;" d="M257.667 316.333L258.333 316.667L257.667 316.333z"/>
<path style="fill:#f9caad; stroke:none;" d="M463 317L464 318L463 317z"/>
<path style="fill:#f6aa7b; stroke:none;" d="M408 318L409 319L408 318z"/>
<path style="fill:#f7bb95; stroke:none;" d="M459 318L459 321L459 318z"/>
<path style="fill:#f6aa7b; stroke:none;" d="M461 318L461 321L461 318z"/>
<path style="fill:#8f9090; stroke:none;" d="M246 319L247 320L246 319M255 319L256 320L255 319z"/>
<path style="fill:#f7bb95; stroke:none;" d="M448 319L449 320L448 319z"/>
<path style="fill:#f38b4b; stroke:none;" d="M460 319L459 328C460.57 325.047 461.231 322.155 460 319z"/>
<path style="fill:#f7bb95; stroke:none;" d="M447 321L448 322L447 321z"/>
<path style="fill:#707272; stroke:none;" d="M244 322L245 323L244 322z"/>
<path style="fill:#8f9090; stroke:none;" d="M253 322L254 323L253 322z"/>
<path style="fill:#fbe7da; stroke:none;" d="M407.333 322.667L407.667 323.333L407.333 322.667z"/>
<path style="fill:#c0c1c1; stroke:none;" d="M243 323L244 324L243 323M253 323L254 324L253 323z"/>
<path style="fill:#fad8c3; stroke:none;" d="M446.333 323.667L446.667 324.333L446.333 323.667z"/>
<path style="fill:#4f5050; stroke:none;" d="M253 324L253 327L253 324z"/>
<path style="fill:#fad8c3; stroke:none;" d="M458 324L458 327L458 324z"/>
<path style="fill:#f7bb95; stroke:none;" d="M460.333 324.667L460.667 325.333L460.333 324.667M406 325L407 326L406 325z"/>
<path style="fill:#4f5050; stroke:none;" d="M241 326L242 327L241 326z"/>
<path style="fill:#f38b4b; stroke:none;" d="M439.667 326.333L440.333 326.667L439.667 326.333z"/>
<path style="fill:#fad8c3; stroke:none;" d="M445.333 326.667L445.667 327.333L445.333 326.667z"/>
<path style="fill:#8f9090; stroke:none;" d="M240 327L241 328L240 327M253 327L254 328L253 327z"/>
<path style="fill:#f59c65; stroke:none;" d="M405 327L406 328L405 327M438.333 327.667L438.667 328.333L438.333 327.667M458 327L460 330L458 327z"/>
<path style="fill:#c0c1c1; stroke:none;" d="M239 328L240 329L239 328z"/>
<path style="fill:#8f9090; stroke:none;" d="M252 328L253 329L252 328z"/>
<path style="fill:#f59c65; stroke:none;" d="M441.333 328.667L441.667 329.333L441.333 328.667z"/>
<path style="fill:#aaabab; stroke:none;" d="M251 329L252 330L251 329z"/>
<path style="fill:#f9caad; stroke:none;" d="M438.333 329.667L438.667 330.333L438.333 329.667M444.333 329.667L444.667 330.333L444.333 329.667z"/>
<path style="fill:#f38b4b; stroke:none;" d="M458 329L457 338C458.57 335.046 459.231 332.155 458 329z"/>
<path style="fill:#c0c1c1; stroke:none;" d="M250 330L251 331L250 330z"/>
<path style="fill:#f9caad; stroke:none;" d="M403 330L404 331L403 330z"/>
<path style="fill:#f7bb95; stroke:none;" d="M441 330L441 333L441 330z"/>
<path style="fill:#fad8c3; stroke:none;" d="M457 330L457 333L457 330z"/>
<path style="fill:#fbe7da; stroke:none;" d="M459.333 330.667L459.667 331.333L459.333 330.667z"/>
<path style="fill:#4f5050; stroke:none;" d="M237 331L238 332L237 331z"/>
<path style="fill:#8f9090; stroke:none;" d="M236 332L237 333L236 332z"/>
<path style="fill:#f7bb95; stroke:none;" d="M402 332L403 333L402 332z"/>
<path style="fill:#f59c65; stroke:none;" d="M437 332L437 339C438.059 336.466 438.059 334.534 437 332z"/>
<path style="fill:#f7bb95; stroke:none;" d="M443.333 332.667L443.667 333.333L443.333 332.667M28 333L28 336L28 333z"/>
<path style="fill:#ef6b1b; stroke:none;" d="M29 333C29.4043 336.908 30.1014 339.664 34 341C33.6889 336.898 32.5998 335.019 29 333z"/>
<path style="fill:#f6aa7b; stroke:none;" d="M30 333L31 334L30 333z"/>
<path style="fill:#c0c1c1; stroke:none;" d="M235 333L236 334L235 333z"/>
<path style="fill:#f7bb95; stroke:none;" d="M401 334L402 335L401 334z"/>
<path style="fill:#fad8c3; stroke:none;" d="M458.333 334.667L458.667 335.333L458.333 334.667z"/>
<path style="fill:#343636; stroke:none;" d="M234 335L235 336L234 335z"/>
<path style="fill:#c0c1c1; stroke:none;" d="M245 335L246 336L245 335z"/>
<path style="fill:#f6aa7b; stroke:none;" d="M34 336L34 340L34 336z"/>
<path style="fill:#4f5050; stroke:none;" d="M233 336L234 337L233 336z"/>
<path style="fill:#c0c1c1; stroke:none;" d="M244 336L245 337L244 336z"/>
<path style="fill:#f9caad; stroke:none;" d="M400 336L401 337L400 336M456.333 336.667L456.667 337.333L456.333 336.667z"/>
<path style="fill:#f7bb95; stroke:none;" d="M29 337L30 338L29 337z"/>
<path style="fill:#8f9090; stroke:none;" d="M232 337L233 338L232 337z"/>
<path style="fill:#c0c1c1; stroke:none;" d="M243 337L244 338L243 337z"/>
<path style="fill:#aaabab; stroke:none;" d="M242 338L243 339L242 338z"/>
<path style="fill:#f9caad; stroke:none;" d="M399 338L400 339L399 338z"/>
<path style="fill:#f59c65; stroke:none;" d="M456 338L456 342L458 338L456 338z"/>
<path style="fill:#f6aa7b; stroke:none;" d="M30 339L31 340L30 339z"/>
<path style="fill:#4f5050; stroke:none;" d="M232.333 339.667L232.667 340.333L232.333 339.667z"/>
<path style="fill:#707272; stroke:none;" d="M241 339L242 340L241 339z"/>
<path style="fill:#f7bb95; stroke:none;" d="M32.6667 341.333L33.3333 341.667L32.6667 341.333z"/>
<path style="fill:#8f9090; stroke:none;" d="M230 341L231 342L230 341z"/>
<path style="fill:#c0c1c1; stroke:none;" d="M240 341L241 342L240 341z"/>
<path style="fill:#f6aa7b; stroke:none;" d="M398 341L399 342L398 341z"/>
<path style="fill:#f7bb95; stroke:none;" d="M438.333 341.667L438.667 342.333L438.333 341.667z"/>
<path style="fill:#f9caad; stroke:none;" d="M455 341L455 346C456.143 343.846 456.205 343.098 455 341z"/>
<path style="fill:#c0c1c1; stroke:none;" d="M228 342L229 343L228 342z"/>
<path style="fill:#4f5050; stroke:none;" d="M239 342L240 343L239 342z"/>
<path style="fill:#fad8c3; stroke:none;" d="M436.667 342.333L437.333 342.667L436.667 342.333z"/>
<path style="fill:#c0c1c1; stroke:none;" d="M227 343L228 344L227 343z"/>
<path style="fill:#343636; stroke:none;" d="M238 343L239 344L238 343z"/>
<path style="fill:#f6aa7b; stroke:none;" d="M397 343L398 344L397 343z"/>
<path style="fill:#aaabab; stroke:none;" d="M226 344L227 345L226 344z"/>
<path style="fill:#f7bb95; stroke:none;" d="M434 344L435 345L434 344z"/>
<path style="fill:#8f9090; stroke:none;" d="M225 345L226 346L225 345z"/>
<path style="fill:#f7bb95; stroke:none;" d="M396 345L397 346L396 345z"/>
<path style="fill:#707272; stroke:none;" d="M224 346L225 347L224 346z"/>
<path style="fill:#aaabab; stroke:none;" d="M236 346L237 347L236 346z"/>
<path style="fill:#343636; stroke:none;" d="M224.333 347.667L224.667 348.333L224.333 347.667z"/>
<path style="fill:#8f9090; stroke:none;" d="M235 347L236 348L235 347z"/>
<path style="fill:#f7bb95; stroke:none;" d="M395 347L396 348L395 347z"/>
<path style="fill:#4f5050; stroke:none;" d="M234 348L235 349L234 348z"/>
<path style="fill:#fad8c3; stroke:none;" d="M432.333 348.667L432.667 349.333L432.333 348.667z"/>
<path style="fill:#707272; stroke:none;" d="M223 349L224 350L223 349z"/>
<path style="fill:#343636; stroke:none;" d="M233 349L234 350L233 349z"/>
<path style="fill:#f7bb95; stroke:none;" d="M394 349L395 350L394 349z"/>
<path style="fill:#aaabab; stroke:none;" d="M220 351L221 352L220 351z"/>
<path style="fill:#f7bb95; stroke:none;" d="M393 351L394 352L393 351z"/>
<path style="fill:#f59c65; stroke:none;" d="M431 351L431 354L431 351z"/>
<path style="fill:#707272; stroke:none;" d="M219 352L220 353L219 352z"/>
<path style="fill:#aaabab; stroke:none;" d="M231 352L232 353L231 352M218 353L219 354L218 353z"/>
<path style="fill:#8f9090; stroke:none;" d="M230 353L231 354L230 353z"/>
<path style="fill:#f6aa7b; stroke:none;" d="M392 353L393 354L392 353z"/>
<path style="fill:#c0c1c1; stroke:none;" d="M217 354L218 355L217 354z"/>
<path style="fill:#707272; stroke:none;" d="M229 354L230 355L229 354z"/>
<path style="fill:#f7bb95; stroke:none;" d="M432 354L433 355L432 354z"/>
<path style="fill:#343636; stroke:none;" d="M228 355L229 356L228 355z"/>
<path style="fill:#f9caad; stroke:none;" d="M434.667 355.333L435.333 355.667L434.667 355.333M390 356L391 357L390 356M436 356L437 357L436 356z"/>
<path style="fill:#c0c1c1; stroke:none;" d="M226 358L227 359L226 358z"/>
<path style="fill:#f38b4b; stroke:none;" d="M389 358L392 361L389 358z"/>
<path style="fill:#8f9090; stroke:none;" d="M225 359L226 360L225 359z"/>
<path style="fill:#f9caad; stroke:none;" d="M388 359L389 360L388 359z"/>
<path style="fill:#f6aa7b; stroke:none;" d="M432 359L433 360L432 359z"/>
<path style="fill:#707272; stroke:none;" d="M224 360L225 361L224 360z"/>
<path style="fill:#f6aa7b; stroke:none;" d="M386 363L390 360L386 363z"/>
<path style="fill:#f9caad; stroke:none;" d="M431 360L432 361L431 360z"/>
<path style="fill:#4f5050; stroke:none;" d="M223 361L224 362L223 361z"/>
<path style="fill:#f6aa7b; stroke:none;" d="M390 362L391 363L390 362M428 362L429 363L428 362z"/>
<path style="fill:#fad8c3; stroke:none;" d="M385.667 363.333L386.333 363.667L385.667 363.333z"/>
<path style="fill:#f7bb95; stroke:none;" d="M427 363L428 364L427 363z"/>
<path style="fill:#c0c1c1; stroke:none;" d="M221 364L222 365L221 364z"/>
<path style="fill:#f7bb95; stroke:none;" d="M389 364L390 365L389 364z"/>
<path style="fill:#f9caad; stroke:none;" d="M426 364L427 365L426 364z"/>
<path style="fill:#8f9090; stroke:none;" d="M207 365L208 366L207 365z"/>
<path style="fill:#aaabab; stroke:none;" d="M220 365L221 366L220 365z"/>
<path style="fill:#f7bb95; stroke:none;" d="M425 365L426 366L425 365z"/>
<path style="fill:#707272; stroke:none;" d="M219 366L220 367L219 366z"/>
<path style="fill:#f7bb95; stroke:none;" d="M388 366L389 367L388 366z"/>
<path style="fill:#fad8c3; stroke:none;" d="M419 366L419 370L419 366z"/>
<path style="fill:#f6aa7b; stroke:none;" d="M424 366L425 367L424 366z"/>
<path style="fill:#707272; stroke:none;" d="M206 367L207 368L206 367z"/>
<path style="fill:#4f5050; stroke:none;" d="M218 367L219 368L218 367M217 368L218 369L217 368z"/>
<path style="fill:#f6aa7b; stroke:none;" d="M387 368L388 369L387 368z"/>
<path style="fill:#c0c1c1; stroke:none;" d="M204 369L205 370L204 369z"/>
<path style="fill:#343636; stroke:none;" d="M216 369L217 370L216 369z"/>
<path style="fill:#fad8c3; stroke:none;" d="M417.333 369.667L417.667 370.333L417.333 369.667z"/>
<path style="fill:#f6aa7b; stroke:none;" d="M422 369L423 370L422 369z"/>
<path style="fill:#fad8c3; stroke:none;" d="M48 370L50 373C50.0476 370.67 50.2034 370.994 48 370z"/>
<path style="fill:#8f9090; stroke:none;" d="M203 370L204 371L203 370z"/>
<path style="fill:#343636; stroke:none;" d="M215 370L216 371L215 370z"/>
<path style="fill:#707272; stroke:none;" d="M202 371L203 372L202 371z"/>
<path style="fill:#4f5050; stroke:none;" d="M214 371L215 372L214 371z"/>
<path style="fill:#f6aa7b; stroke:none;" d="M385 371L386 372L385 371z"/>
<path style="fill:#f59c65; stroke:none;" d="M414 371L417 373L414 371z"/>
<path style="fill:#f7bb95; stroke:none;" d="M50.3333 372.667L50.6667 373.333L50.3333 372.667z"/>
<path style="fill:#343636; stroke:none;" d="M198.667 372.333L199.333 372.667L198.667 372.333z"/>
<path style="fill:#c0c1c1; stroke:none;" d="M200 372L201 373L200 372z"/>
<path style="fill:#4f5050; stroke:none;" d="M201 372L202 373L201 372M213 372L214 373L213 372M197 373L198 374L197 373z"/>
<path style="fill:#8f9090; stroke:none;" d="M212 373L213 374L212 373z"/>
<path style="fill:#f7bb95; stroke:none;" d="M412.333 373.667L412.667 374.333L412.333 373.667M420.333 373.667L420.667 374.333L420.333 373.667z"/>
<path style="fill:#8f9090; stroke:none;" d="M196 374L197 375L196 374M210 374L211 375L210 374z"/>
<path style="fill:#aaabab; stroke:none;" d="M195 375L196 376L195 375z"/>
<path style="fill:#707272; stroke:none;" d="M207 375L208 376L207 375z"/>
<path style="fill:#c0c1c1; stroke:none;" d="M208 375L209 376L208 375z"/>
<path style="fill:#f7bb95; stroke:none;" d="M382 375L383 376L382 375z"/>
<path style="fill:#f6aa7b; stroke:none;" d="M52 376L53 377L52 376z"/>
<path style="fill:#c0c1c1; stroke:none;" d="M194 376L195 377L194 376z"/>
<path style="fill:#f9caad; stroke:none;" d="M381 376L382 377L381 376M415 376L409 388C412.59 385.182 416.313 380.787 415 376z"/>
<path style="fill:#707272; stroke:none;" d="M193 377L194 378L193 377z"/>
<path style="fill:#f9caad; stroke:none;" d="M53 378L54 379L53 378z"/>
<path style="fill:#4f5050; stroke:none;" d="M206 378L207 379L206 378z"/>
<path style="fill:#f59c65; stroke:none;" d="M410 378L411 379L410 378z"/>
<path style="fill:#8f9090; stroke:none;" d="M190 379L191 380L190 379z"/>
<path style="fill:#f7bb95; stroke:none;" d="M379 379L380 380L379 379z"/>
<path style="fill:#4f5050; stroke:none;" d="M189 380L190 381L189 380z"/>
<path style="fill:#8f9090; stroke:none;" d="M205 380L206 381L205 380z"/>
<path style="fill:#f7bb95; stroke:none;" d="M409 380L410 381L409 380M55 381L56 382L55 381z"/>
<path style="fill:#343636; stroke:none;" d="M188 381L189 382L188 381M204 381L205 382L204 381z"/>
<path style="fill:#f6aa7b; stroke:none;" d="M377 382L378 383L377 382z"/>
<path style="fill:#fad8c3; stroke:none;" d="M424.333 382.667L424.667 383.333L424.333 382.667z"/>
<path style="fill:#f9caad; stroke:none;" d="M62 383L63 384L62 383z"/>
<path style="fill:#c0c1c1; stroke:none;" d="M185 383L186 384L185 383M203 383L204 384L203 383z"/>
<path style="fill:#fad8c3; stroke:none;" d="M371 383L374 384L371 383z"/>
<path style="fill:#f59c65; stroke:none;" d="M374 383L377 384L374 383z"/>
<path style="fill:#f9caad; stroke:none;" d="M407 383L408 384L407 383z"/>
<path style="fill:#f7bb95; stroke:none;" d="M423 383L420 390C422.151 387.848 423.505 386.07 423 383z"/>
<path style="fill:#f6aa7b; stroke:none;" d="M57 384L58 385L57 384z"/>
<path style="fill:#f9caad; stroke:none;" d="M63 384L64 385L63 384z"/>
<path style="fill:#707272; stroke:none;" d="M184 384L185 385L184 384z"/>
<path style="fill:#aaabab; stroke:none;" d="M202 384L203 385L202 384z"/>
<path style="fill:#f7bb95; stroke:none;" d="M406 384L407 385L406 384M64 385L65 386L64 385z"/>
<path style="fill:#343636; stroke:none;" d="M183 385L184 386L183 385z"/>
<path style="fill:#8f9090; stroke:none;" d="M201 385L202 386L201 385z"/>
<path style="fill:#f6aa7b; stroke:none;" d="M368 385L369 386L368 385M405 385L406 386L405 385z"/>
<path style="fill:#f7bb95; stroke:none;" d="M65 386L66 387L65 386z"/>
<path style="fill:#aaabab; stroke:none;" d="M180 386L181 387L180 386z"/>
<path style="fill:#4f5050; stroke:none;" d="M181 386L182 387L181 386z"/>
<path style="fill:#8f9090; stroke:none;" d="M200 386L201 387L200 386z"/>
<path style="fill:#f59c65; stroke:none;" d="M404 386L405 387L404 386z"/>
<path style="fill:#f6aa7b; stroke:none;" d="M59 387L60 388L59 387z"/>
<path style="fill:#f7bb95; stroke:none;" d="M66 387L67 388L66 387z"/>
<path style="fill:#707272; stroke:none;" d="M178 387L179 388L178 387z"/>
<path style="fill:#8f9090; stroke:none;" d="M199 387L200 388L199 387z"/>
<path style="fill:#f59c65; stroke:none;" d="M403 387L404 388L403 387z"/>
<path style="fill:#f7bb95; stroke:none;" d="M67 388L68 389L67 388z"/>
<path style="fill:#aaabab; stroke:none;" d="M175 388L176 389L175 388z"/>
<path style="fill:#343636; stroke:none;" d="M176 388L177 389L176 388z"/>
<path style="fill:#8f9090; stroke:none;" d="M198 388L199 389L198 388z"/>
<path style="fill:#f9caad; stroke:none;" d="M366 388L367 389L366 388z"/>
<path style="fill:#f6aa7b; stroke:none;" d="M68 389L69 390L68 389z"/>
<path style="fill:#707272; stroke:none;" d="M173 389L174 390L173 389z"/>
<path style="fill:#aaabab; stroke:none;" d="M197 389L198 390L197 389z"/>
<path style="fill:#f38b4b; stroke:none;" d="M366 389L366 393L366 389z"/>
<path style="fill:#f6aa7b; stroke:none;" d="M61 390L62 391L61 390M69 390L70 391L69 390z"/>
<path style="fill:#4f5050; stroke:none;" d="M171 390L172 391L171 390z"/>
<path style="fill:#707272; stroke:none;" d="M195 390L196 391L195 390z"/>
<path style="fill:#f7bb95; stroke:none;" d="M419 390L414 400C416.855 397.362 419.659 394.029 419 390z"/>
<path style="fill:#f59c65; stroke:none;" d="M70 391L71 392L70 391z"/>
<path style="fill:#aaabab; stroke:none;" d="M167.667 391.333L168.333 391.667L167.667 391.333z"/>
<path style="fill:#4f5050; stroke:none;" d="M169 391L170 392L169 391z"/>
<path style="fill:#343636; stroke:none;" d="M190 391L191 392L190 391z"/>
<path style="fill:#8f9090; stroke:none;" d="M191 391L192 392L191 391M163 392L164 393L163 392z"/>
<path style="fill:#f6aa7b; stroke:none;" d="M63 393L64 394L63 393z"/>
<path style="fill:#c0c1c1; stroke:none;" d="M162 393L163 394L162 393z"/>
<path style="fill:#4f5050; stroke:none;" d="M189 393L190 394L189 393z"/>
<path style="fill:#f6aa7b; stroke:none;" d="M366 393L366 396L366 393z"/>
<path style="fill:#8f9090; stroke:none;" d="M161.333 395.667L161.667 396.333L161.333 395.667z"/>
<path style="fill:#aaabab; stroke:none;" d="M188 395L189 396L188 395z"/>
<path style="fill:#f7bb95; stroke:none;" d="M65 396L66 397L65 396z"/>
<path style="fill:#aaabab; stroke:none;" d="M187 396L188 397L187 396z"/>
<path style="fill:#f9caad; stroke:none;" d="M395 396L396 397L395 396M77 397L78 398L77 397z"/>
<path style="fill:#c0c1c1; stroke:none;" d="M162 397L163 398L162 397z"/>
<path style="fill:#343636; stroke:none;" d="M185 397L186 398L185 397z"/>
<path style="fill:#f6aa7b; stroke:none;" d="M365 397L366 398L365 397z"/>
<path style="fill:#f59c65; stroke:none;" d="M394 397L395 398L394 397z"/>
<path style="fill:#f7bb95; stroke:none;" d="M78 398L79 399L78 398z"/>
<path style="fill:#707272; stroke:none;" d="M164 398L165 399L164 398z"/>
<path style="fill:#aaabab; stroke:none;" d="M184 398L185 399L184 398z"/>
<path style="fill:#f7bb95; stroke:none;" d="M79 399L80 400L79 399z"/>
<path style="fill:#707272; stroke:none;" d="M166 399L167 400L166 399z"/>
<path style="fill:#aaabab; stroke:none;" d="M182 399L183 400L182 399z"/>
<path style="fill:#f7bb95; stroke:none;" d="M363 399L364 400L363 399M393 399L394 400L393 399z"/>
<path style="fill:#f6aa7b; stroke:none;" d="M68 400L69 401L68 400M80 400L81 401L80 400z"/>
<path style="fill:#8f9090; stroke:none;" d="M180 400L181 401L180 400z"/>
<path style="fill:#f9caad; stroke:none;" d="M385 400L386 401L385 400M388 400L389 401L388 400M413 400L412 403L413 400z"/>
<path style="fill:#c0c1c1; stroke:none;" d="M167 401L168 402L167 401z"/>
<path style="fill:#707272; stroke:none;" d="M178 401L179 402L178 401z"/>
<path style="fill:#f6aa7b; stroke:none;" d="M360 401L361 402L360 401z"/>
<path style="fill:#f7bb95; stroke:none;" d="M384 401L385 402L384 401z"/>
<path style="fill:#fad8c3; stroke:none;" d="M392.333 401.667L392.667 402.333L392.333 401.667z"/>
<path style="fill:#aaabab; stroke:none;" d="M168 402L169 403L168 402z"/>
<path style="fill:#707272; stroke:none;" d="M169 402L170 403L169 402z"/>
<path style="fill:#4f5050; stroke:none;" d="M175 402L176 403L175 402z"/>
<path style="fill:#aaabab; stroke:none;" d="M176 402L177 403L176 402z"/>
<path style="fill:#f6aa7b; stroke:none;" d="M383 402L384 403L383 402z"/>
<path style="fill:#f9caad; stroke:none;" d="M357 403L358 404L357 403z"/>
<path style="fill:#f59c65; stroke:none;" d="M382 403L383 404L382 403z"/>
<path style="fill:#f6aa7b; stroke:none;" d="M390 403L391 404L390 403z"/>
<path style="fill:#fad8c3; stroke:none;" d="M411 403L410 406L411 403z"/>
<path style="fill:#f7bb95; stroke:none;" d="M71 404L72 405L71 404z"/>
<path style="fill:#f6aa7b; stroke:none;" d="M356 404L357 405L356 404M72 405L73 406L72 405z"/>
<path style="fill:#f7bb95; stroke:none;" d="M86 405L87 406L86 405z"/>
<path style="fill:#f9caad; stroke:none;" d="M381 405L382 406L381 405z"/>
<path style="fill:#f6aa7b; stroke:none;" d="M87 406L88 407L87 406z"/>
<path style="fill:#fbe7da; stroke:none;" d="M409 406L402 416C405.617 414.051 409.359 410.327 409 406z"/>
<path style="fill:#f7bb95; stroke:none;" d="M352 407L353 408L352 407z"/>
<path style="fill:#f9caad; stroke:none;" d="M380 407L380 410L380 407z"/>
<path style="fill:#f6aa7b; stroke:none;" d="M351 408L352 409L351 408z"/>
<path style="fill:#f7bb95; stroke:none;" d="M75 409L76 410L75 409z"/>
<path style="fill:#f9caad; stroke:none;" d="M91 409L92 410L91 409z"/>
<path style="fill:#f6aa7b; stroke:none;" d="M76 410L77 411L76 410z"/>
<path style="fill:#f7bb95; stroke:none;" d="M92 410L93 411L92 410z"/>
<path style="fill:#f38b4b; stroke:none;" d="M378 411L380 415L381 410L378 411z"/>
<path style="fill:#f59c65; stroke:none;" d="M93 411L94 412L93 411z"/>
<path style="fill:#f9caad; stroke:none;" d="M347 411L348 412L347 411z"/>
<path style="fill:#f6aa7b; stroke:none;" d="M346 412L347 413L346 412z"/>
<path style="fill:#f9caad; stroke:none;" d="M96 413L97 414L96 413z"/>
<path style="fill:#f59c65; stroke:none;" d="M345 413L346 414L345 413z"/>
<path style="fill:#f6aa7b; stroke:none;" d="M375 413L376 414L375 413z"/>
<path style="fill:#ef6b1b; stroke:none;" d="M379 413L379 417L379 413z"/>
<path style="fill:#f6aa7b; stroke:none;" d="M97 414L98 415L97 414z"/>
<path style="fill:#f9caad; stroke:none;" d="M374 414L375 415L374 414z"/>
<path style="fill:#f59c65; stroke:none;" d="M378.333 414.667L378.667 415.333L378.333 414.667z"/>
<path style="fill:#fad8c3; stroke:none;" d="M335.667 415.333L336.333 415.667L335.667 415.333z"/>
<path style="fill:#f9caad; stroke:none;" d="M100 416L101 417L100 416z"/>
<path style="fill:#f6aa7b; stroke:none;" d="M334.667 416.333L335.333 416.667L334.667 416.333z"/>
<path style="fill:#f9caad; stroke:none;" d="M341 416L342 417L341 416z"/>
<path style="fill:#f7bb95; stroke:none;" d="M371 416L372 417L371 416z"/>
<path style="fill:#fad8c3; stroke:none;" d="M378 416L378 419L380 418L378 416z"/>
<path style="fill:#f6aa7b; stroke:none;" d="M101 417L102 418L101 417z"/>
<path style="fill:#f38b4b; stroke:none;" d="M333 417L332 422L335 417L333 417z"/>
<path style="fill:#f6aa7b; stroke:none;" d="M340 417L341 418L340 417z"/>
<path style="fill:#f9caad; stroke:none;" d="M370 417L371 418L370 417z"/>
<path style="fill:#f7bb95; stroke:none;" d="M332 418L333 419L332 418z"/>
<path style="fill:#f9caad; stroke:none;" d="M84 419L85 420L84 419M104 419L105 420L104 419M331 419L332 420L331 419M333 419L334 420L333 419M85 420L86 421L85 420z"/>
<path style="fill:#f59c65; stroke:none;" d="M105 420L106 421L105 420z"/>
<path style="fill:#f7bb95; stroke:none;" d="M336 420L337 421L336 420z"/>
<path style="fill:#f6aa7b; stroke:none;" d="M366 420L367 421L366 420z"/>
<path style="fill:#f9caad; stroke:none;" d="M365 421L366 422L365 421z"/>
<path style="fill:#f6aa7b; stroke:none;" d="M108 422L109 423L108 422z"/>
<path style="fill:#f7bb95; stroke:none;" d="M328 423L329 424L328 423M111 424L112 425L111 424z"/>
<path style="fill:#f6aa7b; stroke:none;" d="M360 425L361 426L360 425z"/>
<path style="fill:#f7bb95; stroke:none;" d="M114 426L115 427L114 426z"/>
<path style="fill:#f9caad; stroke:none;" d="M359 426L360 427L359 426z"/>
<path style="fill:#f6aa7b; stroke:none;" d="M93 427L94 428L93 427z"/>
<path style="fill:#f9caad; stroke:none;" d="M94 428L95 429L94 428z"/>
<path style="fill:#f6aa7b; stroke:none;" d="M117 428L118 429L117 428z"/>
<path style="fill:#f9caad; stroke:none;" d="M119 429L120 430L119 429z"/>
<path style="fill:#f6aa7b; stroke:none;" d="M355 429L356 430L355 429z"/>
<path style="fill:#f9caad; stroke:none;" d="M321 430L322 431L321 430M354 430L355 431L354 430z"/>
<path style="fill:#f6aa7b; stroke:none;" d="M98 431L99 432L98 431z"/>
<path style="fill:#f7bb95; stroke:none;" d="M122 431L123 432L122 431z"/>
<path style="fill:#f59c65; stroke:none;" d="M320 431L321 432L320 431z"/>
<path style="fill:#f9caad; stroke:none;" d="M99 432L100 433L99 432z"/>
<path style="fill:#f7bb95; stroke:none;" d="M318 432L319 433L318 432z"/>
<path style="fill:#f6aa7b; stroke:none;" d="M351 432L352 433L351 432z"/>
<path style="fill:#f9caad; stroke:none;" d="M350 433L351 434L350 433z"/>
<path style="fill:#f7bb95; stroke:none;" d="M102 434L103 435L102 434z"/>
<path style="fill:#f6aa7b; stroke:none;" d="M127 434L128 435L127 434z"/>
<path style="fill:#f7bb95; stroke:none;" d="M312 434L315 435L312 434M129 435L130 436L129 435z"/>
<path style="fill:#f9caad; stroke:none;" d="M310 435L311 436L310 435z"/>
<path style="fill:#f7bb95; stroke:none;" d="M347 435L348 436L347 435M105 436L106 437L105 436z"/>
<path style="fill:#f9caad; stroke:none;" d="M131 436L132 437L131 436z"/>
<path style="fill:#f59c65; stroke:none;" d="M107 437L108 438L107 437z"/>
<path style="fill:#f7bb95; stroke:none;" d="M307 437L308 438L307 437M344 437L345 438L344 437z"/>
<path style="fill:#f9caad; stroke:none;" d="M305 438L306 439L305 438M110 439L111 440L110 439z"/>
<path style="fill:#f7bb95; stroke:none;" d="M341 439L342 440L341 439M112 440L113 441L112 440z"/>
<path style="fill:#f6aa7b; stroke:none;" d="M302 440L303 441L302 440z"/>
<path style="fill:#f59c65; stroke:none;" d="M339 440L340 441L339 440z"/>
<path style="fill:#f7bb95; stroke:none;" d="M114 441L115 442L114 441z"/>
<path style="fill:#f6aa7b; stroke:none;" d="M300 441L301 442L300 441z"/>
<path style="fill:#f7bb95; stroke:none;" d="M116 442L117 443L116 442z"/>
<path style="fill:#f6aa7b; stroke:none;" d="M298 442L299 443L298 442z"/>
<path style="fill:#f7bb95; stroke:none;" d="M336 442L337 443L336 442M145 443L146 444L145 443z"/>
<path style="fill:#f6aa7b; stroke:none;" d="M296 443L297 444L296 443M334 443L335 444L334 443z"/>
<path style="fill:#f59c65; stroke:none;" d="M121.667 444.333L122.333 444.667L121.667 444.333z"/>
<path style="fill:#f7bb95; stroke:none;" d="M147 444L148 445L147 444z"/>
<path style="fill:#f6aa7b; stroke:none;" d="M124.667 445.333L125.333 445.667L124.667 445.333z"/>
<path style="fill:#f59c65; stroke:none;" d="M149 445L150 446L149 445z"/>
<path style="fill:#f9caad; stroke:none;" d="M291 445L292 446L291 445z"/>
<path style="fill:#f6aa7b; stroke:none;" d="M289 446L290 447L289 446z"/>
<path style="fill:#f9caad; stroke:none;" d="M329 446L330 447L329 446z"/>
<path style="fill:#f6aa7b; stroke:none;" d="M154 447L155 448L154 447z"/>
<path style="fill:#f9caad; stroke:none;" d="M286 447L287 448L286 447z"/>
<path style="fill:#f7bb95; stroke:none;" d="M327 447L328 448L327 447z"/>
<path style="fill:#f59c65; stroke:none;" d="M129 448L130 449L129 448z"/>
<path style="fill:#f7bb95; stroke:none;" d="M325 448L326 449L325 448M130 449L131 450L130 449z"/>
<path style="fill:#f9caad; stroke:none;" d="M159.667 449.333L160.333 449.667L159.667 449.333z"/>
<path style="fill:#f6aa7b; stroke:none;" d="M280.667 449.333L281.333 449.667L280.667 449.333z"/>
<path style="fill:#f7bb95; stroke:none;" d="M323 449L324 450L323 449z"/>
<path style="fill:#fad8c3; stroke:none;" d="M162.667 450.333L163.333 450.667L162.667 450.333z"/>
<path style="fill:#f59c65; stroke:none;" d="M277.667 450.333L278.333 450.667L277.667 450.333z"/>
<path style="fill:#f9caad; stroke:none;" d="M321 450L322 451L321 450M133 451L134 452L133 451z"/>
<path style="fill:#fad8c3; stroke:none;" d="M165.667 451.333L166.333 451.667L165.667 451.333M174 451L176 453L176 451L174 451z"/>
<path style="fill:#f38b4b; stroke:none;" d="M274.667 451.333L275.333 451.667L274.667 451.333z"/>
<path style="fill:#f7bb95; stroke:none;" d="M135 452L136 453L135 452z"/>
<path style="fill:#f9caad; stroke:none;" d="M168.667 452.333L169.333 452.667L168.667 452.333z"/>
<path style="fill:#fad8c3; stroke:none;" d="M179.667 452.333L180.333 452.667L179.667 452.333z"/>
<path style="fill:#f7bb95; stroke:none;" d="M269.667 452.333L270.333 452.667L269.667 452.333M137 453L138 454L137 453M171.667 453.333L172.333 453.667L171.667 453.333z"/>
<path style="fill:#f59c65; stroke:none;" d="M176 453L175 455L177 455L176 453z"/>
<path style="fill:#f7bb95; stroke:none;" d="M183.667 453.333L184.333 453.667L183.667 453.333z"/>
<path style="fill:#fbe7da; stroke:none;" d="M185.667 453.333L186.333 453.667L185.667 453.333z"/>
<path style="fill:#f6aa7b; stroke:none;" d="M265.667 453.333L266.333 453.667L265.667 453.333M314 453L315 454L314 453z"/>
<path style="fill:#f9caad; stroke:none;" d="M139 454L140 455L139 454z"/>
<path style="fill:#f59c65; stroke:none;" d="M188.667 454.333L189.333 454.667L188.667 454.333z"/>
<path style="fill:#f9caad; stroke:none;" d="M190.667 454.333L191.333 454.667L190.667 454.333M259 454L262 455L259 454z"/>
<path style="fill:#f7bb95; stroke:none;" d="M312 454L313 455L312 454z"/>
<path style="fill:#f59c65; stroke:none;" d="M194 455L197 456L194 455z"/>
<path style="fill:#f9caad; stroke:none;" d="M197.667 455.333L198.333 455.667L197.667 455.333z"/>
<path style="fill:#fad8c3; stroke:none;" d="M252 455L255 456L252 455z"/>
<path style="fill:#f59c65; stroke:none;" d="M255.667 455.333L256.333 455.667L255.667 455.333M203.667 456.333L204.333 456.667L203.667 456.333z"/>
<path style="fill:#fad8c3; stroke:none;" d="M205 456L209 457L205 456M243 456L246 457L243 456z"/>
<path style="fill:#f7bb95; stroke:none;" d="M246.667 456.333L247.333 456.667L246.667 456.333z"/>
<path style="fill:#f59c65; stroke:none;" d="M248.667 456.333L249.333 456.667L248.667 456.333z"/>
<path style="fill:#f7bb95; stroke:none;" d="M307 456L308 457L307 456M146 457L147 458L146 457z"/>
<path style="fill:#f59c65; stroke:none;" d="M213 457L219 458L213 457z"/>
<path style="fill:#f7bb95; stroke:none;" d="M219 457L234 458L219 457z"/>
<path style="fill:#f59c65; stroke:none;" d="M234 457L239 458L234 457z"/>
<path style="fill:#f7bb95; stroke:none;" d="M148 458L149 459L148 458M150 459L151 460L150 459z"/>
<path style="fill:#f6aa7b; stroke:none;" d="M299 459L300 460L299 459z"/>
<path style="fill:#fbe7da; stroke:none;" d="M291.667 462.333L292.333 462.667L291.667 462.333M288.667 463.333L289.333 463.667L288.667 463.333z"/>
<path style="fill:#f7bb95; stroke:none;" d="M156 464L157 465L156 464z"/>
<path style="fill:#fad8c3; stroke:none;" d="M285.667 464.333L286.333 464.667L285.667 464.333z"/>
<path style="fill:#fbe7da; stroke:none;" d="M313 464L315 466L315 464L313 464z"/>
<path style="fill:#fad8c3; stroke:none;" d="M282.667 465.333L283.333 465.667L282.667 465.333z"/>
<path style="fill:#f38b4b; stroke:none;" d="M308 466L314 466L308 466z"/>
<path style="fill:#f7bb95; stroke:none;" d="M161 466L162 467L161 466z"/>
<path style="fill:#fad8c3; stroke:none;" d="M279.667 466.333L280.333 466.667L279.667 466.333z"/>
<path style="fill:#fbe7da; stroke:none;" d="M276.667 467.333L277.333 467.667L276.667 467.333z"/>
<path style="fill:#ef6b1b; stroke:none;" d="M232 480L247 481L247 483L242 483C247.586 485.339 257.104 483.298 263 482.196C279.457 479.121 294.975 475.686 310 468C303.234 465.439 292.807 472.017 286 473.576L262.285 475.545L232 480z"/>
<path style="fill:#f7bb95; stroke:none;" d="M310 467L311 468L310 467z"/>
<path style="fill:#f59c65; stroke:none;" d="M166.667 468.333L167.333 468.667L166.667 468.333z"/>
<path style="fill:#f38b4b; stroke:none;" d="M302.667 468.333L303.333 468.667L302.667 468.333z"/>
<path style="fill:#f6aa7b; stroke:none;" d="M308 468L309 469L308 468M169.667 469.333L170.333 469.667L169.667 469.333z"/>
<path style="fill:#f59c65; stroke:none;" d="M173.667 470.333L174.333 470.667L173.667 470.333z"/>
<path style="fill:#f9caad; stroke:none;" d="M266.667 470.333L267.333 470.667L266.667 470.333z"/>
<path style="fill:#f7bb95; stroke:none;" d="M176.667 471.333L177.333 471.667L176.667 471.333z"/>
<path style="fill:#f6aa7b; stroke:none;" d="M246.667 471.333L247.333 471.667L246.667 471.333z"/>
<path style="fill:#f7bb95; stroke:none;" d="M248 471L251 472L248 471M258 471L259 472L258 471z"/>
<path style="fill:#fad8c3; stroke:none;" d="M263.667 471.333L264.333 471.667L263.667 471.333z"/>
<path style="fill:#f6aa7b; stroke:none;" d="M292.667 471.333L293.333 471.667L292.667 471.333M302 471L303 472L302 471z"/>
<path style="fill:#f7bb95; stroke:none;" d="M181.667 472.333L182.333 472.667L181.667 472.333z"/>
<path style="fill:#f38b4b; stroke:none;" d="M183.667 472.333L184.333 472.667L183.667 472.333z"/>
<path style="fill:#f59c65; stroke:none;" d="M234 472L237 473L234 472z"/>
<path style="fill:#f7bb95; stroke:none;" d="M237 472L240 473L237 472z"/>
<path style="fill:#f6aa7b; stroke:none;" d="M259.667 472.333L260.333 472.667L259.667 472.333z"/>
<path style="fill:#f59c65; stroke:none;" d="M289.667 472.333L290.333 472.667L289.667 472.333z"/>
<path style="fill:#f7bb95; stroke:none;" d="M300 472L301 473L300 472z"/>
<path style="fill:#fad8c3; stroke:none;" d="M186 473L189 474L186 473z"/>
<path style="fill:#f6aa7b; stroke:none;" d="M189 473L192 474L189 473z"/>
<path style="fill:#f38b4b; stroke:none;" d="M217 473L222 474L217 473z"/>
<path style="fill:#f7bb95; stroke:none;" d="M222 473L227 474L222 473z"/>
<path style="fill:#fad8c3; stroke:none;" d="M227 473L230 474L227 473z"/>
<path style="fill:#f6aa7b; stroke:none;" d="M285.667 473.333L286.333 473.667L285.667 473.333z"/>
<path style="fill:#fad8c3; stroke:none;" d="M197 474L212 475L197 474z"/>
<path style="fill:#f59c65; stroke:none;" d="M260 474L260 477L262 474L260 474z"/>
<path style="fill:#f9caad; stroke:none;" d="M280.667 474.333L281.333 474.667L280.667 474.333z"/>
<path style="fill:#f6aa7b; stroke:none;" d="M265 475L269 476L265 475z"/>
<path style="fill:#fad8c3; stroke:none;" d="M269 475L277 476L269 475z"/>
<path style="fill:#f38b4b; stroke:none;" d="M277.667 475.333L278.333 475.667L277.667 475.333z"/>
<path style="fill:#fad8c3; stroke:none;" d="M292.667 475.333L293.333 475.667L292.667 475.333z"/>
<path style="fill:#f7bb95; stroke:none;" d="M257 476L260 477L257 476z"/>
<path style="fill:#fad8c3; stroke:none;" d="M289.667 476.333L290.333 476.667L289.667 476.333M250 477L253 478L250 477z"/>
<path style="fill:#f59c65; stroke:none;" d="M253.667 477.333L254.333 477.667L253.667 477.333z"/>
<path style="fill:#f7bb95; stroke:none;" d="M285.667 477.333L286.333 477.667L285.667 477.333z"/>
<path style="fill:#fbe7da; stroke:none;" d="M206 478L211 479L206 478M242 478L245 479L242 478z"/>
<path style="fill:#f6aa7b; stroke:none;" d="M245.667 478.333L246.333 478.667L245.667 478.333z"/>
<path style="fill:#f38b4b; stroke:none;" d="M247.667 478.333L248.333 478.667L247.667 478.333z"/>
<path style="fill:#fad8c3; stroke:none;" d="M282.667 478.333L283.333 478.667L282.667 478.333z"/>
<path style="fill:#f7bb95; stroke:none;" d="M201.667 479.333L202.333 479.667L201.667 479.333z"/>
<path style="fill:#f38b4b; stroke:none;" d="M203.667 479.333L204.333 479.667L203.667 479.333z"/>
<path style="fill:#ef6b1b; stroke:none;" d="M205 479L211 480L205 479z"/>
<path style="fill:#f38b4b; stroke:none;" d="M211 479L215 481L211 479z"/>
<path style="fill:#fbe7da; stroke:none;" d="M228 481L233 480C230.7 479.084 229.623 479.121 228 481z"/>
<path style="fill:#f9caad; stroke:none;" d="M233 479L236 480L233 479z"/>
<path style="fill:#f59c65; stroke:none;" d="M236 479L240 480L236 479z"/>
<path style="fill:#f7bb95; stroke:none;" d="M277.667 479.333L278.333 479.667L277.667 479.333z"/>
<path style="fill:#fad8c3; stroke:none;" d="M205 480L208 481L205 480z"/>
<path style="fill:#f6aa7b; stroke:none;" d="M208 480L211 481L208 480M230.667 480.333L231.333 480.667L230.667 480.333M272.667 480.333L273.333 480.667L272.667 480.333z"/>
<path style="fill:#fad8c3; stroke:none;" d="M274.667 480.333L275.333 480.667L274.667 480.333z"/>
<path style="fill:#f7bb95; stroke:none;" d="M237 481L241 482L237 481z"/>
<path style="fill:#f59c65; stroke:none;" d="M241 481L247 483C245.266 480.997 243.645 481.077 241 481M266 481L269 482L266 481z"/>
<path style="fill:#fad8c3; stroke:none;" d="M269.667 481.333L270.333 481.667L269.667 481.333z"/>
<path style="fill:#f7bb95; stroke:none;" d="M244.667 482.333L245.333 482.667L244.667 482.333M261 482L264 483L261 482z"/>
<path style="fill:#fbe7da; stroke:none;" d="M225 483L232 484L225 483z"/>
<path style="fill:#f7bb95; stroke:none;" d="M232 483L238 484L232 483z"/>
<path style="fill:#f38b4b; stroke:none;" d="M238 483L242 485L238 483M250 483L253 484L250 483z"/>
<path style="fill:#f7bb95; stroke:none;" d="M253.667 483.333L254.333 483.667L253.667 483.333z"/>
<path style="fill:#fad8c3; stroke:none;" d="M255.667 483.333L256.333 483.667L255.667 483.333z"/>
<path style="fill:#f9caad; stroke:none;" d="M218.667 484.333L219.333 484.667L218.667 484.333z"/>
<path style="fill:#f38b4b; stroke:none;" d="M217 485L226 486C223.044 483.794 220.531 484.356 217 485z"/>
<path style="fill:#ef6b1b; stroke:none;" d="M225 484L239 485L225 484z"/>
<path style="fill:#f6aa7b; stroke:none;" d="M242 484L245 485L242 484z"/>
<path style="fill:#f9caad; stroke:none;" d="M245 484L248 485L245 484z"/>
<path style="fill:#f6aa7b; stroke:none;" d="M215 487L218 487L217 485L215 487M226 485L231 486L226 485z"/>
<path style="fill:#fad8c3; stroke:none;" d="M231 485L236 486L231 485z"/>
<path style="fill:#f59c65; stroke:none;" d="M205 491L205 493L207 491L205 491z"/>
<path style="fill:#f9caad; stroke:none;" d="M207.667 491.333L208.333 491.667L207.667 491.333z"/>
<path style="fill:#ef6b1b; stroke:none;" d="M206 492C208.518 498.242 220.438 495.033 226 494C220.592 491.731 211.946 492.255 206 492z"/>
<path style="fill:#f38b4b; stroke:none;" d="M211 492L223 493L211 492z"/>
<path style="fill:#fbe7da; stroke:none;" d="M223.667 492.333L224.333 492.667L223.667 492.333z"/>
<path style="fill:#f9caad; stroke:none;" d="M226 493L226 495L228 495L228 493L226 493M206 494L207 495L206 494z"/>
<path style="fill:#f59c65; stroke:none;" d="M223 494L226 495L223 494M211 495L214 496L211 495z"/>
<path style="fill:#fad8c3; stroke:none;" d="M214 495L221 496L214 495z"/>
</svg>
